<mxfile host="app.diagrams.net" modified="2021-09-04T08:24:03.000Z" agent="5.0 (Macintosh; Intel Mac OS X 10_14_6) AppleWebKit/537.36 (KHTML, like Gecko) Chrome/91.0.4472.114 Safari/537.36" etag="-53eqTwo-FlqfVwQ6mvw" version="15.0.6" type="github">
  <diagram id="jBRWD2HVv8BvLUWZsqpH" name="Page-1">
    <mxGraphModel dx="1398" dy="573" grid="1" gridSize="10" guides="1" tooltips="1" connect="1" arrows="1" fold="1" page="1" pageScale="1" pageWidth="827" pageHeight="1169" math="0" shadow="0">
      <root>
        <mxCell id="0" />
        <mxCell id="1" parent="0" />
        <mxCell id="3huNSBhZNZtRJ6iiqQSG-179" value="" style="rounded=0;whiteSpace=wrap;html=1;dashed=1;fillColor=#B9E0A5;" vertex="1" parent="1">
          <mxGeometry x="1080" y="1910" width="371" height="150" as="geometry" />
        </mxCell>
        <mxCell id="3huNSBhZNZtRJ6iiqQSG-178" value="" style="rounded=0;whiteSpace=wrap;html=1;dashed=1;fillColor=#B9E0A5;" vertex="1" parent="1">
          <mxGeometry x="207.89999999999998" y="1910" width="371" height="150" as="geometry" />
        </mxCell>
        <mxCell id="3huNSBhZNZtRJ6iiqQSG-64" value="" style="rounded=0;whiteSpace=wrap;html=1;dashed=1;fillColor=#B9E0A5;" vertex="1" parent="1">
          <mxGeometry x="648" y="1600" width="371" height="150" as="geometry" />
        </mxCell>
        <mxCell id="3huNSBhZNZtRJ6iiqQSG-1" value="&lt;font style=&quot;font-size: 18px&quot;&gt;朋友圈&lt;/font&gt;" style="rounded=1;whiteSpace=wrap;html=1;fontColor=#ffffff;fillColor=#008a00;" vertex="1" parent="1">
          <mxGeometry x="60" y="300" width="150" height="60" as="geometry" />
        </mxCell>
        <mxCell id="3huNSBhZNZtRJ6iiqQSG-2" value="&lt;font style=&quot;font-size: 18px&quot;&gt;发朋友圈&lt;/font&gt;" style="rounded=1;whiteSpace=wrap;html=1;fontColor=#ffffff;fillColor=#60a917;" vertex="1" parent="1">
          <mxGeometry x="350" y="140" width="150" height="60" as="geometry" />
        </mxCell>
        <mxCell id="3huNSBhZNZtRJ6iiqQSG-3" value="&lt;font style=&quot;font-size: 18px&quot;&gt;查看朋友圈&lt;/font&gt;" style="rounded=1;whiteSpace=wrap;html=1;fontColor=#ffffff;fillColor=#60a917;" vertex="1" parent="1">
          <mxGeometry x="350" y="250" width="150" height="60" as="geometry" />
        </mxCell>
        <mxCell id="3huNSBhZNZtRJ6iiqQSG-4" value="&lt;font style=&quot;font-size: 18px&quot;&gt;评论&lt;/font&gt;" style="rounded=1;whiteSpace=wrap;html=1;fontColor=#ffffff;fillColor=#60a917;" vertex="1" parent="1">
          <mxGeometry x="350" y="360" width="150" height="60" as="geometry" />
        </mxCell>
        <mxCell id="3huNSBhZNZtRJ6iiqQSG-5" value="&lt;font style=&quot;font-size: 18px&quot;&gt;点赞&lt;/font&gt;" style="rounded=1;whiteSpace=wrap;html=1;fontColor=#ffffff;fillColor=#60a917;" vertex="1" parent="1">
          <mxGeometry x="350" y="480" width="150" height="60" as="geometry" />
        </mxCell>
        <mxCell id="3huNSBhZNZtRJ6iiqQSG-6" value="" style="endArrow=none;html=1;" edge="1" parent="1">
          <mxGeometry width="50" height="50" relative="1" as="geometry">
            <mxPoint x="210" y="329.5" as="sourcePoint" />
            <mxPoint x="280" y="330" as="targetPoint" />
          </mxGeometry>
        </mxCell>
        <mxCell id="3huNSBhZNZtRJ6iiqQSG-7" value="" style="endArrow=none;html=1;" edge="1" parent="1">
          <mxGeometry width="50" height="50" relative="1" as="geometry">
            <mxPoint x="280" y="516" as="sourcePoint" />
            <mxPoint x="280" y="416" as="targetPoint" />
            <Array as="points">
              <mxPoint x="280" y="166" />
            </Array>
          </mxGeometry>
        </mxCell>
        <mxCell id="3huNSBhZNZtRJ6iiqQSG-8" value="" style="endArrow=classic;html=1;entryX=0;entryY=0.5;entryDx=0;entryDy=0;" edge="1" parent="1" target="3huNSBhZNZtRJ6iiqQSG-2">
          <mxGeometry width="50" height="50" relative="1" as="geometry">
            <mxPoint x="280" y="169.5" as="sourcePoint" />
            <mxPoint x="340" y="169.5" as="targetPoint" />
          </mxGeometry>
        </mxCell>
        <mxCell id="3huNSBhZNZtRJ6iiqQSG-9" value="" style="endArrow=classic;html=1;entryX=0;entryY=0.5;entryDx=0;entryDy=0;" edge="1" parent="1" target="3huNSBhZNZtRJ6iiqQSG-3">
          <mxGeometry width="50" height="50" relative="1" as="geometry">
            <mxPoint x="280" y="279.5" as="sourcePoint" />
            <mxPoint x="340" y="279.5" as="targetPoint" />
          </mxGeometry>
        </mxCell>
        <mxCell id="3huNSBhZNZtRJ6iiqQSG-10" value="" style="endArrow=classic;html=1;entryX=0;entryY=0.5;entryDx=0;entryDy=0;" edge="1" parent="1">
          <mxGeometry width="50" height="50" relative="1" as="geometry">
            <mxPoint x="280" y="389.5" as="sourcePoint" />
            <mxPoint x="350" y="390" as="targetPoint" />
          </mxGeometry>
        </mxCell>
        <mxCell id="3huNSBhZNZtRJ6iiqQSG-11" value="" style="endArrow=classic;html=1;entryX=0;entryY=0.5;entryDx=0;entryDy=0;" edge="1" parent="1">
          <mxGeometry width="50" height="50" relative="1" as="geometry">
            <mxPoint x="280" y="512.5" as="sourcePoint" />
            <mxPoint x="350" y="513" as="targetPoint" />
          </mxGeometry>
        </mxCell>
        <mxCell id="3huNSBhZNZtRJ6iiqQSG-12" value="&lt;font style=&quot;font-size: 14px&quot;&gt;1.5万 TPS(假设1.2亿人在8小时内发朋友圈，然后在此基础上按3倍估)&lt;/font&gt;" style="text;html=1;resizable=0;autosize=1;align=center;verticalAlign=middle;points=[];fillColor=none;strokeColor=none;rounded=0;" vertex="1" parent="1">
          <mxGeometry x="520" y="160" width="450" height="20" as="geometry" />
        </mxCell>
        <mxCell id="3huNSBhZNZtRJ6iiqQSG-13" value="&lt;font style=&quot;font-size: 14px&quot;&gt;75万 QPS(假设平均50个人查看朋友圈)&lt;/font&gt;" style="text;html=1;resizable=0;autosize=1;align=center;verticalAlign=middle;points=[];fillColor=none;strokeColor=none;rounded=0;" vertex="1" parent="1">
          <mxGeometry x="530" y="270" width="260" height="20" as="geometry" />
        </mxCell>
        <mxCell id="3huNSBhZNZtRJ6iiqQSG-14" value="&lt;font style=&quot;font-size: 14px&quot;&gt;25万 TPS(假设在查看朋友圈的基础上有三分之一的人会评论)&lt;/font&gt;" style="text;html=1;resizable=0;autosize=1;align=center;verticalAlign=middle;points=[];fillColor=none;strokeColor=none;rounded=0;" vertex="1" parent="1">
          <mxGeometry x="540" y="380" width="390" height="20" as="geometry" />
        </mxCell>
        <mxCell id="3huNSBhZNZtRJ6iiqQSG-15" value="&lt;font style=&quot;font-size: 14px&quot;&gt;38万 QPS(假设在查看朋友圈的基础上只有二分之一的人会点赞)&lt;/font&gt;" style="text;html=1;resizable=0;autosize=1;align=center;verticalAlign=middle;points=[];fillColor=none;strokeColor=none;rounded=0;" vertex="1" parent="1">
          <mxGeometry x="530" y="500" width="410" height="20" as="geometry" />
        </mxCell>
        <mxCell id="3huNSBhZNZtRJ6iiqQSG-18" value="&lt;font style=&quot;font-size: 18px&quot;&gt;发朋友圈&lt;/font&gt;" style="rounded=1;whiteSpace=wrap;html=1;fontColor=#ffffff;fillColor=#008a00;" vertex="1" parent="1">
          <mxGeometry x="58" y="995" width="150" height="60" as="geometry" />
        </mxCell>
        <mxCell id="3huNSBhZNZtRJ6iiqQSG-19" value="&lt;font style=&quot;font-size: 18px&quot;&gt;单机&lt;/font&gt;" style="rounded=1;whiteSpace=wrap;html=1;fontColor=#ffffff;fillColor=#60a917;" vertex="1" parent="1">
          <mxGeometry x="348" y="837" width="150" height="60" as="geometry" />
        </mxCell>
        <mxCell id="3huNSBhZNZtRJ6iiqQSG-20" value="&lt;font style=&quot;font-size: 18px&quot;&gt;集群&lt;/font&gt;" style="rounded=1;whiteSpace=wrap;html=1;fontColor=#ffffff;fillColor=#60a917;" vertex="1" parent="1">
          <mxGeometry x="350" y="1185" width="150" height="60" as="geometry" />
        </mxCell>
        <mxCell id="3huNSBhZNZtRJ6iiqQSG-21" value="" style="endArrow=none;html=1;" edge="1" parent="1">
          <mxGeometry width="50" height="50" relative="1" as="geometry">
            <mxPoint x="208" y="1028.5" as="sourcePoint" />
            <mxPoint x="278" y="1029" as="targetPoint" />
          </mxGeometry>
        </mxCell>
        <mxCell id="3huNSBhZNZtRJ6iiqQSG-22" value="" style="endArrow=none;html=1;" edge="1" parent="1">
          <mxGeometry width="50" height="50" relative="1" as="geometry">
            <mxPoint x="278" y="1215" as="sourcePoint" />
            <mxPoint x="278" y="1115" as="targetPoint" />
            <Array as="points">
              <mxPoint x="278" y="865" />
            </Array>
          </mxGeometry>
        </mxCell>
        <mxCell id="3huNSBhZNZtRJ6iiqQSG-23" value="" style="endArrow=classic;html=1;entryX=0;entryY=0.5;entryDx=0;entryDy=0;" edge="1" parent="1">
          <mxGeometry width="50" height="50" relative="1" as="geometry">
            <mxPoint x="278" y="870" as="sourcePoint" />
            <mxPoint x="348" y="870.5" as="targetPoint" />
          </mxGeometry>
        </mxCell>
        <mxCell id="3huNSBhZNZtRJ6iiqQSG-24" value="" style="endArrow=classic;html=1;entryX=0;entryY=0.5;entryDx=0;entryDy=0;" edge="1" parent="1">
          <mxGeometry width="50" height="50" relative="1" as="geometry">
            <mxPoint x="278" y="1215" as="sourcePoint" />
            <mxPoint x="348" y="1215.5" as="targetPoint" />
          </mxGeometry>
        </mxCell>
        <mxCell id="3huNSBhZNZtRJ6iiqQSG-25" value="&lt;font style=&quot;font-size: 18px&quot;&gt;计算高性能&lt;/font&gt;" style="rounded=1;whiteSpace=wrap;html=1;fontColor=#ffffff;fillColor=#73C91C;" vertex="1" parent="1">
          <mxGeometry x="638" y="750" width="150" height="60" as="geometry" />
        </mxCell>
        <mxCell id="3huNSBhZNZtRJ6iiqQSG-26" value="&lt;span style=&quot;font-size: 18px&quot;&gt;存储高性能&lt;/span&gt;" style="rounded=1;whiteSpace=wrap;html=1;fontColor=#ffffff;fillColor=#73C91C;" vertex="1" parent="1">
          <mxGeometry x="638" y="925" width="150" height="60" as="geometry" />
        </mxCell>
        <mxCell id="3huNSBhZNZtRJ6iiqQSG-27" value="" style="endArrow=none;html=1;" edge="1" parent="1">
          <mxGeometry width="50" height="50" relative="1" as="geometry">
            <mxPoint x="498" y="866.5" as="sourcePoint" />
            <mxPoint x="568" y="867" as="targetPoint" />
          </mxGeometry>
        </mxCell>
        <mxCell id="3huNSBhZNZtRJ6iiqQSG-28" value="" style="endArrow=none;html=1;" edge="1" parent="1">
          <mxGeometry width="50" height="50" relative="1" as="geometry">
            <mxPoint x="568" y="955" as="sourcePoint" />
            <mxPoint x="568" y="865" as="targetPoint" />
            <Array as="points">
              <mxPoint x="568" y="775" />
            </Array>
          </mxGeometry>
        </mxCell>
        <mxCell id="3huNSBhZNZtRJ6iiqQSG-29" value="" style="endArrow=classic;html=1;entryX=0;entryY=0.5;entryDx=0;entryDy=0;" edge="1" parent="1">
          <mxGeometry width="50" height="50" relative="1" as="geometry">
            <mxPoint x="568" y="779.5" as="sourcePoint" />
            <mxPoint x="638" y="780" as="targetPoint" />
          </mxGeometry>
        </mxCell>
        <mxCell id="3huNSBhZNZtRJ6iiqQSG-30" value="" style="endArrow=classic;html=1;entryX=0;entryY=0.5;entryDx=0;entryDy=0;" edge="1" parent="1">
          <mxGeometry width="50" height="50" relative="1" as="geometry">
            <mxPoint x="568" y="955" as="sourcePoint" />
            <mxPoint x="638" y="955.5" as="targetPoint" />
          </mxGeometry>
        </mxCell>
        <mxCell id="3huNSBhZNZtRJ6iiqQSG-31" value="&lt;font style=&quot;font-size: 18px&quot;&gt;计算高性能&lt;/font&gt;" style="rounded=1;whiteSpace=wrap;html=1;fontColor=#ffffff;fillColor=#73C91C;" vertex="1" parent="1">
          <mxGeometry x="640" y="1099" width="150" height="60" as="geometry" />
        </mxCell>
        <mxCell id="3huNSBhZNZtRJ6iiqQSG-32" value="&lt;span style=&quot;font-size: 18px&quot;&gt;存储高性能&lt;/span&gt;" style="rounded=1;whiteSpace=wrap;html=1;fontColor=#ffffff;fillColor=#73C91C;" vertex="1" parent="1">
          <mxGeometry x="640" y="1274" width="150" height="60" as="geometry" />
        </mxCell>
        <mxCell id="3huNSBhZNZtRJ6iiqQSG-33" value="" style="endArrow=none;html=1;" edge="1" parent="1">
          <mxGeometry width="50" height="50" relative="1" as="geometry">
            <mxPoint x="500" y="1215.5" as="sourcePoint" />
            <mxPoint x="570" y="1216" as="targetPoint" />
          </mxGeometry>
        </mxCell>
        <mxCell id="3huNSBhZNZtRJ6iiqQSG-34" value="" style="endArrow=none;html=1;" edge="1" parent="1">
          <mxGeometry width="50" height="50" relative="1" as="geometry">
            <mxPoint x="570" y="1304" as="sourcePoint" />
            <mxPoint x="570" y="1214" as="targetPoint" />
            <Array as="points">
              <mxPoint x="570" y="1124" />
            </Array>
          </mxGeometry>
        </mxCell>
        <mxCell id="3huNSBhZNZtRJ6iiqQSG-35" value="" style="endArrow=classic;html=1;entryX=0;entryY=0.5;entryDx=0;entryDy=0;" edge="1" parent="1">
          <mxGeometry width="50" height="50" relative="1" as="geometry">
            <mxPoint x="570" y="1128.5" as="sourcePoint" />
            <mxPoint x="640" y="1129" as="targetPoint" />
          </mxGeometry>
        </mxCell>
        <mxCell id="3huNSBhZNZtRJ6iiqQSG-36" value="" style="endArrow=classic;html=1;entryX=0;entryY=0.5;entryDx=0;entryDy=0;" edge="1" parent="1">
          <mxGeometry width="50" height="50" relative="1" as="geometry">
            <mxPoint x="570" y="1304" as="sourcePoint" />
            <mxPoint x="640" y="1304.5" as="targetPoint" />
          </mxGeometry>
        </mxCell>
        <mxCell id="3huNSBhZNZtRJ6iiqQSG-37" value="&lt;font style=&quot;font-size: 18px&quot;&gt;进程模型&lt;/font&gt;" style="rounded=1;whiteSpace=wrap;html=1;fillColor=#d0cee2;" vertex="1" parent="1">
          <mxGeometry x="930" y="662.5" width="150" height="60" as="geometry" />
        </mxCell>
        <mxCell id="3huNSBhZNZtRJ6iiqQSG-38" value="&lt;span style=&quot;font-size: 18px&quot;&gt;缓存模型&lt;/span&gt;" style="rounded=1;whiteSpace=wrap;html=1;fontColor=#ffffff;fillColor=#85E820;" vertex="1" parent="1">
          <mxGeometry x="930" y="837.5" width="150" height="60" as="geometry" />
        </mxCell>
        <mxCell id="3huNSBhZNZtRJ6iiqQSG-39" value="" style="endArrow=none;html=1;" edge="1" parent="1">
          <mxGeometry width="50" height="50" relative="1" as="geometry">
            <mxPoint x="790" y="779" as="sourcePoint" />
            <mxPoint x="860" y="779.5" as="targetPoint" />
          </mxGeometry>
        </mxCell>
        <mxCell id="3huNSBhZNZtRJ6iiqQSG-40" value="" style="endArrow=none;html=1;" edge="1" parent="1">
          <mxGeometry width="50" height="50" relative="1" as="geometry">
            <mxPoint x="860" y="867.5" as="sourcePoint" />
            <mxPoint x="860" y="777.5" as="targetPoint" />
            <Array as="points">
              <mxPoint x="860" y="687.5" />
            </Array>
          </mxGeometry>
        </mxCell>
        <mxCell id="3huNSBhZNZtRJ6iiqQSG-41" value="" style="endArrow=classic;html=1;entryX=0;entryY=0.5;entryDx=0;entryDy=0;" edge="1" parent="1">
          <mxGeometry width="50" height="50" relative="1" as="geometry">
            <mxPoint x="860" y="692" as="sourcePoint" />
            <mxPoint x="930" y="692.5" as="targetPoint" />
          </mxGeometry>
        </mxCell>
        <mxCell id="3huNSBhZNZtRJ6iiqQSG-42" value="" style="endArrow=classic;html=1;entryX=0;entryY=0.5;entryDx=0;entryDy=0;" edge="1" parent="1">
          <mxGeometry width="50" height="50" relative="1" as="geometry">
            <mxPoint x="860" y="867.5" as="sourcePoint" />
            <mxPoint x="930" y="868" as="targetPoint" />
          </mxGeometry>
        </mxCell>
        <mxCell id="3huNSBhZNZtRJ6iiqQSG-43" value="&lt;span style=&quot;font-size: 18px&quot;&gt;网络模型&lt;/span&gt;" style="rounded=1;whiteSpace=wrap;html=1;fillColor=#d0cee2;" vertex="1" parent="1">
          <mxGeometry x="930" y="750" width="150" height="60" as="geometry" />
        </mxCell>
        <mxCell id="3huNSBhZNZtRJ6iiqQSG-44" value="" style="endArrow=classic;html=1;entryX=0;entryY=0.5;entryDx=0;entryDy=0;" edge="1" parent="1">
          <mxGeometry width="50" height="50" relative="1" as="geometry">
            <mxPoint x="860" y="779.5" as="sourcePoint" />
            <mxPoint x="930" y="780" as="targetPoint" />
          </mxGeometry>
        </mxCell>
        <mxCell id="3huNSBhZNZtRJ6iiqQSG-45" value="&lt;font style=&quot;font-size: 18px&quot;&gt;存储模型&lt;/font&gt;" style="rounded=1;whiteSpace=wrap;html=1;fontColor=#ffffff;fillColor=#85E820;" vertex="1" parent="1">
          <mxGeometry x="930" y="925" width="150" height="60" as="geometry" />
        </mxCell>
        <mxCell id="3huNSBhZNZtRJ6iiqQSG-46" value="" style="endArrow=classic;html=1;exitX=1;exitY=0.5;exitDx=0;exitDy=0;" edge="1" parent="1" source="3huNSBhZNZtRJ6iiqQSG-26">
          <mxGeometry width="50" height="50" relative="1" as="geometry">
            <mxPoint x="860" y="954.5" as="sourcePoint" />
            <mxPoint x="930" y="955" as="targetPoint" />
          </mxGeometry>
        </mxCell>
        <mxCell id="3huNSBhZNZtRJ6iiqQSG-47" value="&lt;font style=&quot;font-size: 18px&quot;&gt;任务分配&lt;/font&gt;" style="rounded=1;whiteSpace=wrap;html=1;fontColor=#ffffff;fillColor=#85E820;" vertex="1" parent="1">
          <mxGeometry x="932" y="1099" width="150" height="60" as="geometry" />
        </mxCell>
        <mxCell id="3huNSBhZNZtRJ6iiqQSG-48" value="" style="endArrow=classic;html=1;exitX=1;exitY=0.5;exitDx=0;exitDy=0;" edge="1" parent="1">
          <mxGeometry width="50" height="50" relative="1" as="geometry">
            <mxPoint x="790" y="1129" as="sourcePoint" />
            <mxPoint x="932" y="1129" as="targetPoint" />
          </mxGeometry>
        </mxCell>
        <mxCell id="3huNSBhZNZtRJ6iiqQSG-49" value="&lt;font style=&quot;font-size: 18px&quot;&gt;任务分解&lt;/font&gt;" style="rounded=1;whiteSpace=wrap;html=1;fontColor=#ffffff;fillColor=#85E820;" vertex="1" parent="1">
          <mxGeometry x="932" y="1274" width="150" height="60" as="geometry" />
        </mxCell>
        <mxCell id="3huNSBhZNZtRJ6iiqQSG-50" value="" style="endArrow=classic;html=1;exitX=1;exitY=0.5;exitDx=0;exitDy=0;" edge="1" parent="1">
          <mxGeometry width="50" height="50" relative="1" as="geometry">
            <mxPoint x="790" y="1304" as="sourcePoint" />
            <mxPoint x="932" y="1304" as="targetPoint" />
          </mxGeometry>
        </mxCell>
        <mxCell id="3huNSBhZNZtRJ6iiqQSG-51" value="&lt;font style=&quot;font-size: 14px&quot;&gt;先存入本地缓存，再存入redis集群&lt;/font&gt;" style="text;html=1;resizable=0;autosize=1;align=center;verticalAlign=middle;points=[];fillColor=none;strokeColor=none;rounded=0;" vertex="1" parent="1">
          <mxGeometry x="1100" y="857.5" width="230" height="20" as="geometry" />
        </mxCell>
        <mxCell id="3huNSBhZNZtRJ6iiqQSG-52" value="&lt;span style=&quot;font-size: 14px&quot;&gt;采用关系型数据库、redis集群、分布式文件存储&lt;/span&gt;" style="text;html=1;resizable=0;autosize=1;align=center;verticalAlign=middle;points=[];fillColor=none;strokeColor=none;rounded=0;" vertex="1" parent="1">
          <mxGeometry x="1090" y="945" width="310" height="20" as="geometry" />
        </mxCell>
        <mxCell id="3huNSBhZNZtRJ6iiqQSG-53" value="&lt;span style=&quot;font-size: 14px&quot;&gt;负载均衡即可，无需拆分任务&lt;/span&gt;" style="text;html=1;resizable=0;autosize=1;align=center;verticalAlign=middle;points=[];fillColor=none;strokeColor=none;rounded=0;" vertex="1" parent="1">
          <mxGeometry x="1090" y="1119" width="200" height="20" as="geometry" />
        </mxCell>
        <mxCell id="3huNSBhZNZtRJ6iiqQSG-55" value="&lt;span style=&quot;font-size: 14px&quot;&gt;无需考虑&lt;/span&gt;" style="text;html=1;resizable=0;autosize=1;align=center;verticalAlign=middle;points=[];fillColor=none;strokeColor=none;rounded=0;" vertex="1" parent="1">
          <mxGeometry x="1100" y="680" width="70" height="20" as="geometry" />
        </mxCell>
        <mxCell id="3huNSBhZNZtRJ6iiqQSG-56" value="&lt;font style=&quot;font-size: 14px&quot;&gt;无需考虑&lt;/font&gt;" style="text;html=1;resizable=0;autosize=1;align=center;verticalAlign=middle;points=[];fillColor=none;strokeColor=none;rounded=0;" vertex="1" parent="1">
          <mxGeometry x="1100" y="770" width="70" height="20" as="geometry" />
        </mxCell>
        <mxCell id="3huNSBhZNZtRJ6iiqQSG-57" value="&lt;font color=&quot;#ffffff&quot; style=&quot;font-size: 18px&quot;&gt;Nginx&lt;/font&gt;" style="rounded=0;whiteSpace=wrap;html=1;strokeColor=#000000;fillColor=#73C91C;" vertex="1" parent="1">
          <mxGeometry x="773.5" y="1500" width="120" height="60" as="geometry" />
        </mxCell>
        <mxCell id="3huNSBhZNZtRJ6iiqQSG-61" value="" style="aspect=fixed;pointerEvents=1;shadow=0;dashed=0;html=1;strokeColor=none;labelPosition=center;verticalLabelPosition=bottom;verticalAlign=top;align=center;shape=mxgraph.mscae.enterprise.server_generic;fillColor=#427310;" vertex="1" parent="1">
          <mxGeometry x="689.1" y="1650" width="28.8" height="60" as="geometry" />
        </mxCell>
        <mxCell id="3huNSBhZNZtRJ6iiqQSG-62" value="" style="aspect=fixed;pointerEvents=1;shadow=0;dashed=0;html=1;strokeColor=none;labelPosition=center;verticalLabelPosition=bottom;verticalAlign=top;align=center;shape=mxgraph.mscae.enterprise.server_generic;fillColor=#427310;" vertex="1" parent="1">
          <mxGeometry x="819.1" y="1650" width="28.8" height="60" as="geometry" />
        </mxCell>
        <mxCell id="3huNSBhZNZtRJ6iiqQSG-63" value="" style="aspect=fixed;pointerEvents=1;shadow=0;dashed=0;html=1;strokeColor=none;labelPosition=center;verticalLabelPosition=bottom;verticalAlign=top;align=center;shape=mxgraph.mscae.enterprise.server_generic;fillColor=#427310;" vertex="1" parent="1">
          <mxGeometry x="939.1" y="1650" width="28.8" height="60" as="geometry" />
        </mxCell>
        <mxCell id="3huNSBhZNZtRJ6iiqQSG-65" value="&lt;span style=&quot;font-size: 14px&quot;&gt;发朋友圈服务集群&lt;br&gt;（负载均衡）&lt;br&gt;&lt;/span&gt;" style="text;html=1;resizable=0;autosize=1;align=center;verticalAlign=middle;points=[];fillColor=none;strokeColor=none;rounded=0;" vertex="1" parent="1">
          <mxGeometry x="653.5" y="1600" width="130" height="40" as="geometry" />
        </mxCell>
        <mxCell id="3huNSBhZNZtRJ6iiqQSG-66" value="" style="endArrow=classic;html=1;" edge="1" parent="1">
          <mxGeometry width="50" height="50" relative="1" as="geometry">
            <mxPoint x="833.5" y="1560" as="sourcePoint" />
            <mxPoint x="833.5" y="1600" as="targetPoint" />
          </mxGeometry>
        </mxCell>
        <mxCell id="3huNSBhZNZtRJ6iiqQSG-72" value="&lt;span style=&quot;font-size: 14px&quot;&gt;数据库集群&lt;br&gt;（分库分表）&lt;br&gt;&lt;/span&gt;" style="text;html=1;resizable=0;autosize=1;align=center;verticalAlign=middle;points=[];fillColor=none;strokeColor=none;rounded=0;" vertex="1" parent="1">
          <mxGeometry x="199" y="1910" width="100" height="40" as="geometry" />
        </mxCell>
        <mxCell id="3huNSBhZNZtRJ6iiqQSG-73" value="&lt;font style=&quot;font-size: 18px&quot;&gt;Sharding-JDBC&lt;/font&gt;" style="rounded=1;whiteSpace=wrap;html=1;fontColor=#ffffff;fillColor=#73C91C;" vertex="1" parent="1">
          <mxGeometry x="324" y="1820" width="150" height="60" as="geometry" />
        </mxCell>
        <mxCell id="3huNSBhZNZtRJ6iiqQSG-74" value="" style="endArrow=classic;html=1;" edge="1" parent="1">
          <mxGeometry width="50" height="50" relative="1" as="geometry">
            <mxPoint x="398.5" y="1790" as="sourcePoint" />
            <mxPoint x="398.5" y="1820" as="targetPoint" />
          </mxGeometry>
        </mxCell>
        <mxCell id="3huNSBhZNZtRJ6iiqQSG-76" value="" style="endArrow=classic;html=1;" edge="1" parent="1">
          <mxGeometry width="50" height="50" relative="1" as="geometry">
            <mxPoint x="398.5" y="1880" as="sourcePoint" />
            <mxPoint x="398.5" y="1910" as="targetPoint" />
          </mxGeometry>
        </mxCell>
        <mxCell id="3huNSBhZNZtRJ6iiqQSG-77" value="" style="verticalLabelPosition=bottom;html=1;verticalAlign=top;align=center;strokeColor=none;shape=mxgraph.azure.database;fillColor=#427310;" vertex="1" parent="1">
          <mxGeometry x="232" y="1960" width="50" height="70" as="geometry" />
        </mxCell>
        <mxCell id="3huNSBhZNZtRJ6iiqQSG-78" value="" style="verticalLabelPosition=bottom;html=1;verticalAlign=top;align=center;strokeColor=none;shape=mxgraph.azure.database;fillColor=#427310;" vertex="1" parent="1">
          <mxGeometry x="368.4" y="1960" width="50" height="70" as="geometry" />
        </mxCell>
        <mxCell id="3huNSBhZNZtRJ6iiqQSG-79" value="" style="verticalLabelPosition=bottom;html=1;verticalAlign=top;align=center;strokeColor=none;shape=mxgraph.azure.database;fillColor=#427310;" vertex="1" parent="1">
          <mxGeometry x="499" y="1960" width="50" height="70" as="geometry" />
        </mxCell>
        <mxCell id="3huNSBhZNZtRJ6iiqQSG-83" value="&lt;span style=&quot;font-size: 14px&quot;&gt;分布式文件服务&lt;br&gt;&lt;/span&gt;" style="text;html=1;resizable=0;autosize=1;align=center;verticalAlign=middle;points=[];fillColor=none;strokeColor=none;rounded=0;" vertex="1" parent="1">
          <mxGeometry x="1080" y="1920" width="110" height="20" as="geometry" />
        </mxCell>
        <mxCell id="3huNSBhZNZtRJ6iiqQSG-84" value="" style="pointerEvents=1;shadow=0;dashed=0;html=1;strokeColor=none;labelPosition=center;verticalLabelPosition=bottom;verticalAlign=top;align=center;shape=mxgraph.mscae.system_center.distribution_point;fillColor=#427310;" vertex="1" parent="1">
          <mxGeometry x="1117" y="1965" width="50" height="60" as="geometry" />
        </mxCell>
        <mxCell id="3huNSBhZNZtRJ6iiqQSG-85" value="" style="pointerEvents=1;shadow=0;dashed=0;html=1;strokeColor=none;labelPosition=center;verticalLabelPosition=bottom;verticalAlign=top;align=center;shape=mxgraph.mscae.system_center.distribution_point;fillColor=#427310;" vertex="1" parent="1">
          <mxGeometry x="1245" y="1965" width="50" height="60" as="geometry" />
        </mxCell>
        <mxCell id="3huNSBhZNZtRJ6iiqQSG-86" value="" style="pointerEvents=1;shadow=0;dashed=0;html=1;strokeColor=none;labelPosition=center;verticalLabelPosition=bottom;verticalAlign=top;align=center;shape=mxgraph.mscae.system_center.distribution_point;fillColor=#427310;" vertex="1" parent="1">
          <mxGeometry x="1377" y="1965" width="50" height="60" as="geometry" />
        </mxCell>
        <mxCell id="3huNSBhZNZtRJ6iiqQSG-87" value="" style="endArrow=none;html=1;" edge="1" parent="1">
          <mxGeometry width="50" height="50" relative="1" as="geometry">
            <mxPoint x="398" y="1790" as="sourcePoint" />
            <mxPoint x="1270" y="1791" as="targetPoint" />
          </mxGeometry>
        </mxCell>
        <mxCell id="3huNSBhZNZtRJ6iiqQSG-88" value="" style="endArrow=none;html=1;entryX=0.5;entryY=0;entryDx=0;entryDy=0;" edge="1" parent="1" target="3huNSBhZNZtRJ6iiqQSG-185">
          <mxGeometry width="50" height="50" relative="1" as="geometry">
            <mxPoint x="835.1" y="1750" as="sourcePoint" />
            <mxPoint x="837.5" y="1820" as="targetPoint" />
          </mxGeometry>
        </mxCell>
        <mxCell id="3huNSBhZNZtRJ6iiqQSG-89" value="" style="endArrow=classic;html=1;entryX=0.5;entryY=0;entryDx=0;entryDy=0;" edge="1" parent="1">
          <mxGeometry width="50" height="50" relative="1" as="geometry">
            <mxPoint x="1272" y="1790" as="sourcePoint" />
            <mxPoint x="1272" y="1910" as="targetPoint" />
          </mxGeometry>
        </mxCell>
        <mxCell id="3huNSBhZNZtRJ6iiqQSG-90" value="&lt;font style=&quot;font-size: 24px&quot;&gt;发朋友圈架构图&lt;/font&gt;" style="text;html=1;resizable=0;autosize=1;align=center;verticalAlign=middle;points=[];fillColor=none;strokeColor=none;rounded=0;" vertex="1" parent="1">
          <mxGeometry x="102" y="1400" width="180" height="20" as="geometry" />
        </mxCell>
        <mxCell id="3huNSBhZNZtRJ6iiqQSG-91" value="&lt;font style=&quot;font-size: 24px&quot;&gt;高性能方案-发朋友圈&lt;/font&gt;" style="text;html=1;resizable=0;autosize=1;align=center;verticalAlign=middle;points=[];fillColor=none;strokeColor=none;rounded=0;" vertex="1" parent="1">
          <mxGeometry x="28" y="610" width="240" height="20" as="geometry" />
        </mxCell>
        <mxCell id="3huNSBhZNZtRJ6iiqQSG-132" value="&lt;font style=&quot;font-size: 18px&quot;&gt;查看朋友圈&lt;/font&gt;" style="rounded=1;whiteSpace=wrap;html=1;fontColor=#ffffff;fillColor=#008a00;" vertex="1" parent="1">
          <mxGeometry x="130" y="2525" width="150" height="60" as="geometry" />
        </mxCell>
        <mxCell id="3huNSBhZNZtRJ6iiqQSG-133" value="&lt;font style=&quot;font-size: 18px&quot;&gt;单机&lt;/font&gt;" style="rounded=1;whiteSpace=wrap;html=1;fontColor=#ffffff;fillColor=#60a917;" vertex="1" parent="1">
          <mxGeometry x="420" y="2367" width="150" height="60" as="geometry" />
        </mxCell>
        <mxCell id="3huNSBhZNZtRJ6iiqQSG-134" value="&lt;font style=&quot;font-size: 18px&quot;&gt;集群&lt;/font&gt;" style="rounded=1;whiteSpace=wrap;html=1;fontColor=#ffffff;fillColor=#60a917;" vertex="1" parent="1">
          <mxGeometry x="422" y="2715" width="150" height="60" as="geometry" />
        </mxCell>
        <mxCell id="3huNSBhZNZtRJ6iiqQSG-135" value="" style="endArrow=none;html=1;" edge="1" parent="1">
          <mxGeometry width="50" height="50" relative="1" as="geometry">
            <mxPoint x="280" y="2558.5" as="sourcePoint" />
            <mxPoint x="350" y="2559" as="targetPoint" />
          </mxGeometry>
        </mxCell>
        <mxCell id="3huNSBhZNZtRJ6iiqQSG-136" value="" style="endArrow=none;html=1;" edge="1" parent="1">
          <mxGeometry width="50" height="50" relative="1" as="geometry">
            <mxPoint x="350" y="2745" as="sourcePoint" />
            <mxPoint x="350" y="2645" as="targetPoint" />
            <Array as="points">
              <mxPoint x="350" y="2395" />
            </Array>
          </mxGeometry>
        </mxCell>
        <mxCell id="3huNSBhZNZtRJ6iiqQSG-137" value="" style="endArrow=classic;html=1;entryX=0;entryY=0.5;entryDx=0;entryDy=0;" edge="1" parent="1">
          <mxGeometry width="50" height="50" relative="1" as="geometry">
            <mxPoint x="350" y="2400" as="sourcePoint" />
            <mxPoint x="420" y="2400.5" as="targetPoint" />
          </mxGeometry>
        </mxCell>
        <mxCell id="3huNSBhZNZtRJ6iiqQSG-138" value="" style="endArrow=classic;html=1;entryX=0;entryY=0.5;entryDx=0;entryDy=0;" edge="1" parent="1">
          <mxGeometry width="50" height="50" relative="1" as="geometry">
            <mxPoint x="350" y="2745" as="sourcePoint" />
            <mxPoint x="420" y="2745.5" as="targetPoint" />
          </mxGeometry>
        </mxCell>
        <mxCell id="3huNSBhZNZtRJ6iiqQSG-139" value="&lt;font style=&quot;font-size: 18px&quot;&gt;计算高性能&lt;/font&gt;" style="rounded=1;whiteSpace=wrap;html=1;fontColor=#ffffff;fillColor=#73C91C;" vertex="1" parent="1">
          <mxGeometry x="710" y="2280" width="150" height="60" as="geometry" />
        </mxCell>
        <mxCell id="3huNSBhZNZtRJ6iiqQSG-140" value="&lt;span style=&quot;font-size: 18px&quot;&gt;存储高性能&lt;/span&gt;" style="rounded=1;whiteSpace=wrap;html=1;fontColor=#ffffff;fillColor=#73C91C;" vertex="1" parent="1">
          <mxGeometry x="710" y="2455" width="150" height="60" as="geometry" />
        </mxCell>
        <mxCell id="3huNSBhZNZtRJ6iiqQSG-141" value="" style="endArrow=none;html=1;" edge="1" parent="1">
          <mxGeometry width="50" height="50" relative="1" as="geometry">
            <mxPoint x="570" y="2396.5" as="sourcePoint" />
            <mxPoint x="640" y="2397" as="targetPoint" />
          </mxGeometry>
        </mxCell>
        <mxCell id="3huNSBhZNZtRJ6iiqQSG-142" value="" style="endArrow=none;html=1;" edge="1" parent="1">
          <mxGeometry width="50" height="50" relative="1" as="geometry">
            <mxPoint x="640" y="2485" as="sourcePoint" />
            <mxPoint x="640" y="2395" as="targetPoint" />
            <Array as="points">
              <mxPoint x="640" y="2305" />
            </Array>
          </mxGeometry>
        </mxCell>
        <mxCell id="3huNSBhZNZtRJ6iiqQSG-143" value="" style="endArrow=classic;html=1;entryX=0;entryY=0.5;entryDx=0;entryDy=0;" edge="1" parent="1">
          <mxGeometry width="50" height="50" relative="1" as="geometry">
            <mxPoint x="640" y="2309.5" as="sourcePoint" />
            <mxPoint x="710" y="2310" as="targetPoint" />
          </mxGeometry>
        </mxCell>
        <mxCell id="3huNSBhZNZtRJ6iiqQSG-144" value="" style="endArrow=classic;html=1;entryX=0;entryY=0.5;entryDx=0;entryDy=0;" edge="1" parent="1">
          <mxGeometry width="50" height="50" relative="1" as="geometry">
            <mxPoint x="640" y="2485" as="sourcePoint" />
            <mxPoint x="710" y="2485.5" as="targetPoint" />
          </mxGeometry>
        </mxCell>
        <mxCell id="3huNSBhZNZtRJ6iiqQSG-145" value="&lt;font style=&quot;font-size: 18px&quot;&gt;计算高性能&lt;/font&gt;" style="rounded=1;whiteSpace=wrap;html=1;fontColor=#ffffff;fillColor=#73C91C;" vertex="1" parent="1">
          <mxGeometry x="712" y="2629" width="150" height="60" as="geometry" />
        </mxCell>
        <mxCell id="3huNSBhZNZtRJ6iiqQSG-146" value="&lt;span style=&quot;font-size: 18px&quot;&gt;存储高性能&lt;/span&gt;" style="rounded=1;whiteSpace=wrap;html=1;fontColor=#ffffff;fillColor=#73C91C;" vertex="1" parent="1">
          <mxGeometry x="712" y="2804" width="150" height="60" as="geometry" />
        </mxCell>
        <mxCell id="3huNSBhZNZtRJ6iiqQSG-147" value="" style="endArrow=none;html=1;" edge="1" parent="1">
          <mxGeometry width="50" height="50" relative="1" as="geometry">
            <mxPoint x="572" y="2745.5" as="sourcePoint" />
            <mxPoint x="642" y="2746" as="targetPoint" />
          </mxGeometry>
        </mxCell>
        <mxCell id="3huNSBhZNZtRJ6iiqQSG-148" value="" style="endArrow=none;html=1;" edge="1" parent="1">
          <mxGeometry width="50" height="50" relative="1" as="geometry">
            <mxPoint x="642" y="2834" as="sourcePoint" />
            <mxPoint x="642" y="2744" as="targetPoint" />
            <Array as="points">
              <mxPoint x="642" y="2654" />
            </Array>
          </mxGeometry>
        </mxCell>
        <mxCell id="3huNSBhZNZtRJ6iiqQSG-149" value="" style="endArrow=classic;html=1;entryX=0;entryY=0.5;entryDx=0;entryDy=0;" edge="1" parent="1">
          <mxGeometry width="50" height="50" relative="1" as="geometry">
            <mxPoint x="642" y="2658.5" as="sourcePoint" />
            <mxPoint x="712" y="2659" as="targetPoint" />
          </mxGeometry>
        </mxCell>
        <mxCell id="3huNSBhZNZtRJ6iiqQSG-150" value="" style="endArrow=classic;html=1;entryX=0;entryY=0.5;entryDx=0;entryDy=0;" edge="1" parent="1">
          <mxGeometry width="50" height="50" relative="1" as="geometry">
            <mxPoint x="642" y="2834" as="sourcePoint" />
            <mxPoint x="712" y="2834.5" as="targetPoint" />
          </mxGeometry>
        </mxCell>
        <mxCell id="3huNSBhZNZtRJ6iiqQSG-151" value="&lt;font style=&quot;font-size: 18px&quot;&gt;进程模型&lt;/font&gt;" style="rounded=1;whiteSpace=wrap;html=1;fillColor=#d0cee2;" vertex="1" parent="1">
          <mxGeometry x="1002" y="2192.5" width="150" height="60" as="geometry" />
        </mxCell>
        <mxCell id="3huNSBhZNZtRJ6iiqQSG-152" value="&lt;span style=&quot;font-size: 18px&quot;&gt;缓存模型&lt;/span&gt;" style="rounded=1;whiteSpace=wrap;html=1;fontColor=#ffffff;fillColor=#85E820;" vertex="1" parent="1">
          <mxGeometry x="1002" y="2367.5" width="150" height="60" as="geometry" />
        </mxCell>
        <mxCell id="3huNSBhZNZtRJ6iiqQSG-153" value="" style="endArrow=none;html=1;" edge="1" parent="1">
          <mxGeometry width="50" height="50" relative="1" as="geometry">
            <mxPoint x="862" y="2309" as="sourcePoint" />
            <mxPoint x="932" y="2309.5" as="targetPoint" />
          </mxGeometry>
        </mxCell>
        <mxCell id="3huNSBhZNZtRJ6iiqQSG-154" value="" style="endArrow=none;html=1;" edge="1" parent="1">
          <mxGeometry width="50" height="50" relative="1" as="geometry">
            <mxPoint x="932" y="2397.5" as="sourcePoint" />
            <mxPoint x="932" y="2307.5" as="targetPoint" />
            <Array as="points">
              <mxPoint x="932" y="2217.5" />
            </Array>
          </mxGeometry>
        </mxCell>
        <mxCell id="3huNSBhZNZtRJ6iiqQSG-155" value="" style="endArrow=classic;html=1;entryX=0;entryY=0.5;entryDx=0;entryDy=0;" edge="1" parent="1">
          <mxGeometry width="50" height="50" relative="1" as="geometry">
            <mxPoint x="932" y="2222" as="sourcePoint" />
            <mxPoint x="1002" y="2222.5" as="targetPoint" />
          </mxGeometry>
        </mxCell>
        <mxCell id="3huNSBhZNZtRJ6iiqQSG-156" value="" style="endArrow=classic;html=1;entryX=0;entryY=0.5;entryDx=0;entryDy=0;" edge="1" parent="1">
          <mxGeometry width="50" height="50" relative="1" as="geometry">
            <mxPoint x="932" y="2397.5" as="sourcePoint" />
            <mxPoint x="1002" y="2398" as="targetPoint" />
          </mxGeometry>
        </mxCell>
        <mxCell id="3huNSBhZNZtRJ6iiqQSG-157" value="&lt;span style=&quot;font-size: 18px&quot;&gt;网络模型&lt;/span&gt;" style="rounded=1;whiteSpace=wrap;html=1;fillColor=#d0cee2;" vertex="1" parent="1">
          <mxGeometry x="1002" y="2280" width="150" height="60" as="geometry" />
        </mxCell>
        <mxCell id="3huNSBhZNZtRJ6iiqQSG-158" value="" style="endArrow=classic;html=1;entryX=0;entryY=0.5;entryDx=0;entryDy=0;" edge="1" parent="1">
          <mxGeometry width="50" height="50" relative="1" as="geometry">
            <mxPoint x="932" y="2309.5" as="sourcePoint" />
            <mxPoint x="1002" y="2310" as="targetPoint" />
          </mxGeometry>
        </mxCell>
        <mxCell id="3huNSBhZNZtRJ6iiqQSG-159" value="&lt;font style=&quot;font-size: 18px&quot;&gt;存储模型&lt;/font&gt;" style="rounded=1;whiteSpace=wrap;html=1;fontColor=#ffffff;fillColor=#D0CEE2;" vertex="1" parent="1">
          <mxGeometry x="1002" y="2455" width="150" height="60" as="geometry" />
        </mxCell>
        <mxCell id="3huNSBhZNZtRJ6iiqQSG-160" value="" style="endArrow=classic;html=1;exitX=1;exitY=0.5;exitDx=0;exitDy=0;" edge="1" parent="1" source="3huNSBhZNZtRJ6iiqQSG-140">
          <mxGeometry width="50" height="50" relative="1" as="geometry">
            <mxPoint x="932" y="2484.5" as="sourcePoint" />
            <mxPoint x="1002" y="2485" as="targetPoint" />
          </mxGeometry>
        </mxCell>
        <mxCell id="3huNSBhZNZtRJ6iiqQSG-161" value="&lt;font style=&quot;font-size: 18px&quot;&gt;任务分配&lt;/font&gt;" style="rounded=1;whiteSpace=wrap;html=1;fontColor=#ffffff;fillColor=#85E820;" vertex="1" parent="1">
          <mxGeometry x="1004" y="2629" width="150" height="60" as="geometry" />
        </mxCell>
        <mxCell id="3huNSBhZNZtRJ6iiqQSG-162" value="" style="endArrow=classic;html=1;exitX=1;exitY=0.5;exitDx=0;exitDy=0;" edge="1" parent="1">
          <mxGeometry width="50" height="50" relative="1" as="geometry">
            <mxPoint x="862" y="2659" as="sourcePoint" />
            <mxPoint x="1004" y="2659" as="targetPoint" />
          </mxGeometry>
        </mxCell>
        <mxCell id="3huNSBhZNZtRJ6iiqQSG-163" value="&lt;font style=&quot;font-size: 18px&quot;&gt;任务分解&lt;/font&gt;" style="rounded=1;whiteSpace=wrap;html=1;fontColor=#ffffff;fillColor=#D0CEE2;" vertex="1" parent="1">
          <mxGeometry x="1004" y="2804" width="150" height="60" as="geometry" />
        </mxCell>
        <mxCell id="3huNSBhZNZtRJ6iiqQSG-164" value="" style="endArrow=classic;html=1;exitX=1;exitY=0.5;exitDx=0;exitDy=0;" edge="1" parent="1">
          <mxGeometry width="50" height="50" relative="1" as="geometry">
            <mxPoint x="862" y="2834" as="sourcePoint" />
            <mxPoint x="1004" y="2834" as="targetPoint" />
          </mxGeometry>
        </mxCell>
        <mxCell id="3huNSBhZNZtRJ6iiqQSG-165" value="&lt;font style=&quot;font-size: 14px&quot;&gt;先查询本地缓存，未命中则&lt;/font&gt;&lt;span style=&quot;font-size: 14px&quot;&gt;再查redis集群&lt;/span&gt;" style="text;html=1;resizable=0;autosize=1;align=center;verticalAlign=middle;points=[];fillColor=none;strokeColor=none;rounded=0;" vertex="1" parent="1">
          <mxGeometry x="1172" y="2387.5" width="270" height="20" as="geometry" />
        </mxCell>
        <mxCell id="3huNSBhZNZtRJ6iiqQSG-167" value="&lt;span style=&quot;font-size: 14px&quot;&gt;负载均衡即可，无需拆分任务&lt;/span&gt;" style="text;html=1;resizable=0;autosize=1;align=center;verticalAlign=middle;points=[];fillColor=none;strokeColor=none;rounded=0;" vertex="1" parent="1">
          <mxGeometry x="1162" y="2649" width="200" height="20" as="geometry" />
        </mxCell>
        <mxCell id="3huNSBhZNZtRJ6iiqQSG-169" value="&lt;span style=&quot;font-size: 14px&quot;&gt;无需考虑&lt;/span&gt;" style="text;html=1;resizable=0;autosize=1;align=center;verticalAlign=middle;points=[];fillColor=none;strokeColor=none;rounded=0;" vertex="1" parent="1">
          <mxGeometry x="1172" y="2210" width="70" height="20" as="geometry" />
        </mxCell>
        <mxCell id="3huNSBhZNZtRJ6iiqQSG-170" value="&lt;font style=&quot;font-size: 14px&quot;&gt;无需考虑&lt;/font&gt;" style="text;html=1;resizable=0;autosize=1;align=center;verticalAlign=middle;points=[];fillColor=none;strokeColor=none;rounded=0;" vertex="1" parent="1">
          <mxGeometry x="1172" y="2300" width="70" height="20" as="geometry" />
        </mxCell>
        <mxCell id="3huNSBhZNZtRJ6iiqQSG-171" value="&lt;font style=&quot;font-size: 24px&quot;&gt;高性能方案-查看朋友圈&lt;/font&gt;" style="text;html=1;resizable=0;autosize=1;align=center;verticalAlign=middle;points=[];fillColor=none;strokeColor=none;rounded=0;" vertex="1" parent="1">
          <mxGeometry x="90" y="2140" width="260" height="20" as="geometry" />
        </mxCell>
        <mxCell id="3huNSBhZNZtRJ6iiqQSG-175" value="&lt;span style=&quot;font-size: 14px&quot;&gt;采用关系型数据库、redis集群、分布式文件存储&lt;/span&gt;" style="text;html=1;resizable=0;autosize=1;align=center;verticalAlign=middle;points=[];fillColor=none;strokeColor=none;rounded=0;" vertex="1" parent="1">
          <mxGeometry x="1090" y="1294" width="310" height="20" as="geometry" />
        </mxCell>
        <mxCell id="3huNSBhZNZtRJ6iiqQSG-176" value="&lt;span style=&quot;font-size: 14px&quot;&gt;不涉及&lt;/span&gt;" style="text;html=1;resizable=0;autosize=1;align=center;verticalAlign=middle;points=[];fillColor=none;strokeColor=none;rounded=0;" vertex="1" parent="1">
          <mxGeometry x="1177" y="2820" width="60" height="20" as="geometry" />
        </mxCell>
        <mxCell id="3huNSBhZNZtRJ6iiqQSG-177" value="&lt;span style=&quot;font-size: 14px&quot;&gt;不涉及&lt;/span&gt;" style="text;html=1;resizable=0;autosize=1;align=center;verticalAlign=middle;points=[];fillColor=none;strokeColor=none;rounded=0;" vertex="1" parent="1">
          <mxGeometry x="1181" y="2475" width="60" height="20" as="geometry" />
        </mxCell>
        <mxCell id="3huNSBhZNZtRJ6iiqQSG-180" value="" style="rounded=0;whiteSpace=wrap;html=1;dashed=1;fillColor=#B9E0A5;" vertex="1" parent="1">
          <mxGeometry x="648" y="1910" width="371" height="150" as="geometry" />
        </mxCell>
        <mxCell id="3huNSBhZNZtRJ6iiqQSG-181" value="&lt;span style=&quot;font-size: 14px&quot;&gt;分布式缓存服务&lt;br&gt;&lt;/span&gt;" style="text;html=1;resizable=0;autosize=1;align=center;verticalAlign=middle;points=[];fillColor=none;strokeColor=none;rounded=0;" vertex="1" parent="1">
          <mxGeometry x="653.5" y="1920" width="110" height="20" as="geometry" />
        </mxCell>
        <mxCell id="3huNSBhZNZtRJ6iiqQSG-182" value="" style="aspect=fixed;html=1;points=[];align=center;image;fontSize=12;image=img/lib/mscae/Cache_Redis_Product.svg;dashed=1;strokeColor=#000000;fillColor=#D0CEE2;" vertex="1" parent="1">
          <mxGeometry x="678.74" y="1965" width="59.52" height="50" as="geometry" />
        </mxCell>
        <mxCell id="3huNSBhZNZtRJ6iiqQSG-183" value="" style="aspect=fixed;html=1;points=[];align=center;image;fontSize=12;image=img/lib/mscae/Cache_Redis_Product.svg;dashed=1;strokeColor=#000000;fillColor=#D0CEE2;" vertex="1" parent="1">
          <mxGeometry x="798" y="1965" width="59.52" height="50" as="geometry" />
        </mxCell>
        <mxCell id="3huNSBhZNZtRJ6iiqQSG-184" value="" style="aspect=fixed;html=1;points=[];align=center;image;fontSize=12;image=img/lib/mscae/Cache_Redis_Product.svg;dashed=1;strokeColor=#000000;fillColor=#D0CEE2;" vertex="1" parent="1">
          <mxGeometry x="920.48" y="1965" width="59.52" height="50" as="geometry" />
        </mxCell>
        <mxCell id="3huNSBhZNZtRJ6iiqQSG-185" value="&lt;font style=&quot;font-size: 18px&quot;&gt;Jedis&lt;/font&gt;" style="rounded=1;whiteSpace=wrap;html=1;fontColor=#ffffff;fillColor=#73C91C;" vertex="1" parent="1">
          <mxGeometry x="760.5" y="1820" width="150" height="60" as="geometry" />
        </mxCell>
        <mxCell id="3huNSBhZNZtRJ6iiqQSG-189" value="" style="endArrow=classic;html=1;" edge="1" parent="1">
          <mxGeometry width="50" height="50" relative="1" as="geometry">
            <mxPoint x="833" y="1880" as="sourcePoint" />
            <mxPoint x="833" y="1910" as="targetPoint" />
          </mxGeometry>
        </mxCell>
        <mxCell id="3huNSBhZNZtRJ6iiqQSG-190" value="" style="rounded=0;whiteSpace=wrap;html=1;dashed=1;fillColor=#B9E0A5;" vertex="1" parent="1">
          <mxGeometry x="785.45" y="3590" width="371" height="150" as="geometry" />
        </mxCell>
        <mxCell id="3huNSBhZNZtRJ6iiqQSG-191" value="" style="rounded=0;whiteSpace=wrap;html=1;dashed=1;fillColor=#B9E0A5;" vertex="1" parent="1">
          <mxGeometry x="356.90000000000003" y="3870" width="371" height="150" as="geometry" />
        </mxCell>
        <mxCell id="3huNSBhZNZtRJ6iiqQSG-192" value="" style="rounded=0;whiteSpace=wrap;html=1;dashed=1;fillColor=#B9E0A5;" vertex="1" parent="1">
          <mxGeometry x="353.45" y="3280" width="371" height="150" as="geometry" />
        </mxCell>
        <mxCell id="3huNSBhZNZtRJ6iiqQSG-193" value="&lt;font color=&quot;#ffffff&quot; style=&quot;font-size: 18px&quot;&gt;Nginx&lt;/font&gt;" style="rounded=0;whiteSpace=wrap;html=1;strokeColor=#000000;fillColor=#73C91C;" vertex="1" parent="1">
          <mxGeometry x="478.95" y="3180" width="120" height="60" as="geometry" />
        </mxCell>
        <mxCell id="3huNSBhZNZtRJ6iiqQSG-194" value="" style="aspect=fixed;pointerEvents=1;shadow=0;dashed=0;html=1;strokeColor=none;labelPosition=center;verticalLabelPosition=bottom;verticalAlign=top;align=center;shape=mxgraph.mscae.enterprise.server_generic;fillColor=#427310;" vertex="1" parent="1">
          <mxGeometry x="394.55" y="3330" width="28.8" height="60" as="geometry" />
        </mxCell>
        <mxCell id="3huNSBhZNZtRJ6iiqQSG-195" value="" style="aspect=fixed;pointerEvents=1;shadow=0;dashed=0;html=1;strokeColor=none;labelPosition=center;verticalLabelPosition=bottom;verticalAlign=top;align=center;shape=mxgraph.mscae.enterprise.server_generic;fillColor=#427310;" vertex="1" parent="1">
          <mxGeometry x="524.55" y="3330" width="28.8" height="60" as="geometry" />
        </mxCell>
        <mxCell id="3huNSBhZNZtRJ6iiqQSG-196" value="" style="aspect=fixed;pointerEvents=1;shadow=0;dashed=0;html=1;strokeColor=none;labelPosition=center;verticalLabelPosition=bottom;verticalAlign=top;align=center;shape=mxgraph.mscae.enterprise.server_generic;fillColor=#427310;" vertex="1" parent="1">
          <mxGeometry x="644.55" y="3330" width="28.8" height="60" as="geometry" />
        </mxCell>
        <mxCell id="3huNSBhZNZtRJ6iiqQSG-197" value="&lt;span style=&quot;font-size: 14px&quot;&gt;查看朋友圈服务集群&lt;br&gt;（负载均衡）&lt;br&gt;&lt;/span&gt;" style="text;html=1;resizable=0;autosize=1;align=center;verticalAlign=middle;points=[];fillColor=none;strokeColor=none;rounded=0;" vertex="1" parent="1">
          <mxGeometry x="353.95" y="3280" width="140" height="40" as="geometry" />
        </mxCell>
        <mxCell id="3huNSBhZNZtRJ6iiqQSG-198" value="" style="endArrow=classic;html=1;" edge="1" parent="1">
          <mxGeometry width="50" height="50" relative="1" as="geometry">
            <mxPoint x="538.95" y="3240" as="sourcePoint" />
            <mxPoint x="538.95" y="3280" as="targetPoint" />
          </mxGeometry>
        </mxCell>
        <mxCell id="3huNSBhZNZtRJ6iiqQSG-199" value="&lt;span style=&quot;font-size: 14px&quot;&gt;数据库集群&lt;br&gt;（分库分表）&lt;br&gt;&lt;/span&gt;" style="text;html=1;resizable=0;autosize=1;align=center;verticalAlign=middle;points=[];fillColor=none;strokeColor=none;rounded=0;" vertex="1" parent="1">
          <mxGeometry x="348.00000000000006" y="3870" width="100" height="40" as="geometry" />
        </mxCell>
        <mxCell id="3huNSBhZNZtRJ6iiqQSG-200" value="&lt;font style=&quot;font-size: 18px&quot;&gt;Sharding-JDBC&lt;/font&gt;" style="rounded=1;whiteSpace=wrap;html=1;fontColor=#ffffff;fillColor=#73C91C;" vertex="1" parent="1">
          <mxGeometry x="473.00000000000006" y="3780" width="150" height="60" as="geometry" />
        </mxCell>
        <mxCell id="3huNSBhZNZtRJ6iiqQSG-201" value="" style="endArrow=classic;html=1;exitX=0.523;exitY=1.013;exitDx=0;exitDy=0;exitPerimeter=0;" edge="1" parent="1" source="3huNSBhZNZtRJ6iiqQSG-214">
          <mxGeometry width="50" height="50" relative="1" as="geometry">
            <mxPoint x="548.5" y="3750" as="sourcePoint" />
            <mxPoint x="548.5" y="3780" as="targetPoint" />
          </mxGeometry>
        </mxCell>
        <mxCell id="3huNSBhZNZtRJ6iiqQSG-221" value="缓存未命中" style="edgeLabel;html=1;align=center;verticalAlign=middle;resizable=0;points=[];" vertex="1" connectable="0" parent="3huNSBhZNZtRJ6iiqQSG-201">
          <mxGeometry x="-0.1045" relative="1" as="geometry">
            <mxPoint x="-1" as="offset" />
          </mxGeometry>
        </mxCell>
        <mxCell id="3huNSBhZNZtRJ6iiqQSG-202" value="" style="endArrow=classic;html=1;" edge="1" parent="1">
          <mxGeometry width="50" height="50" relative="1" as="geometry">
            <mxPoint x="547.5" y="3840" as="sourcePoint" />
            <mxPoint x="547.5" y="3870" as="targetPoint" />
          </mxGeometry>
        </mxCell>
        <mxCell id="3huNSBhZNZtRJ6iiqQSG-203" value="" style="verticalLabelPosition=bottom;html=1;verticalAlign=top;align=center;strokeColor=none;shape=mxgraph.azure.database;fillColor=#427310;" vertex="1" parent="1">
          <mxGeometry x="381.00000000000006" y="3920" width="50" height="70" as="geometry" />
        </mxCell>
        <mxCell id="3huNSBhZNZtRJ6iiqQSG-204" value="" style="verticalLabelPosition=bottom;html=1;verticalAlign=top;align=center;strokeColor=none;shape=mxgraph.azure.database;fillColor=#427310;" vertex="1" parent="1">
          <mxGeometry x="517.4000000000001" y="3920" width="50" height="70" as="geometry" />
        </mxCell>
        <mxCell id="3huNSBhZNZtRJ6iiqQSG-205" value="" style="verticalLabelPosition=bottom;html=1;verticalAlign=top;align=center;strokeColor=none;shape=mxgraph.azure.database;fillColor=#427310;" vertex="1" parent="1">
          <mxGeometry x="648" y="3920" width="50" height="70" as="geometry" />
        </mxCell>
        <mxCell id="3huNSBhZNZtRJ6iiqQSG-206" value="&lt;span style=&quot;font-size: 14px&quot;&gt;分布式文件服务&lt;br&gt;&lt;/span&gt;" style="text;html=1;resizable=0;autosize=1;align=center;verticalAlign=middle;points=[];fillColor=none;strokeColor=none;rounded=0;" vertex="1" parent="1">
          <mxGeometry x="785.45" y="3600" width="110" height="20" as="geometry" />
        </mxCell>
        <mxCell id="3huNSBhZNZtRJ6iiqQSG-207" value="" style="pointerEvents=1;shadow=0;dashed=0;html=1;strokeColor=none;labelPosition=center;verticalLabelPosition=bottom;verticalAlign=top;align=center;shape=mxgraph.mscae.system_center.distribution_point;fillColor=#427310;" vertex="1" parent="1">
          <mxGeometry x="822.45" y="3645" width="50" height="60" as="geometry" />
        </mxCell>
        <mxCell id="3huNSBhZNZtRJ6iiqQSG-208" value="" style="pointerEvents=1;shadow=0;dashed=0;html=1;strokeColor=none;labelPosition=center;verticalLabelPosition=bottom;verticalAlign=top;align=center;shape=mxgraph.mscae.system_center.distribution_point;fillColor=#427310;" vertex="1" parent="1">
          <mxGeometry x="950.45" y="3645" width="50" height="60" as="geometry" />
        </mxCell>
        <mxCell id="3huNSBhZNZtRJ6iiqQSG-209" value="" style="pointerEvents=1;shadow=0;dashed=0;html=1;strokeColor=none;labelPosition=center;verticalLabelPosition=bottom;verticalAlign=top;align=center;shape=mxgraph.mscae.system_center.distribution_point;fillColor=#427310;" vertex="1" parent="1">
          <mxGeometry x="1082.45" y="3645" width="50" height="60" as="geometry" />
        </mxCell>
        <mxCell id="3huNSBhZNZtRJ6iiqQSG-210" value="" style="endArrow=none;html=1;" edge="1" parent="1">
          <mxGeometry width="50" height="50" relative="1" as="geometry">
            <mxPoint x="537.3499999999999" y="3150" as="sourcePoint" />
            <mxPoint x="979.45" y="3151" as="targetPoint" />
          </mxGeometry>
        </mxCell>
        <mxCell id="3huNSBhZNZtRJ6iiqQSG-211" value="" style="endArrow=none;html=1;entryX=0.5;entryY=0;entryDx=0;entryDy=0;" edge="1" parent="1" target="3huNSBhZNZtRJ6iiqQSG-219">
          <mxGeometry width="50" height="50" relative="1" as="geometry">
            <mxPoint x="540.55" y="3430" as="sourcePoint" />
            <mxPoint x="542.95" y="3500" as="targetPoint" />
          </mxGeometry>
        </mxCell>
        <mxCell id="3huNSBhZNZtRJ6iiqQSG-212" value="" style="endArrow=classic;html=1;entryX=0.5;entryY=0;entryDx=0;entryDy=0;" edge="1" parent="1">
          <mxGeometry width="50" height="50" relative="1" as="geometry">
            <mxPoint x="977.45" y="3150" as="sourcePoint" />
            <mxPoint x="977.45" y="3590" as="targetPoint" />
          </mxGeometry>
        </mxCell>
        <mxCell id="3huNSBhZNZtRJ6iiqQSG-213" value="&lt;font style=&quot;font-size: 24px&quot;&gt;查看朋友圈架构图&lt;/font&gt;" style="text;html=1;resizable=0;autosize=1;align=center;verticalAlign=middle;points=[];fillColor=none;strokeColor=none;rounded=0;" vertex="1" parent="1">
          <mxGeometry x="70" y="2970" width="210" height="20" as="geometry" />
        </mxCell>
        <mxCell id="3huNSBhZNZtRJ6iiqQSG-214" value="" style="rounded=0;whiteSpace=wrap;html=1;dashed=1;fillColor=#B9E0A5;" vertex="1" parent="1">
          <mxGeometry x="353.45" y="3590" width="371" height="150" as="geometry" />
        </mxCell>
        <mxCell id="3huNSBhZNZtRJ6iiqQSG-215" value="&lt;span style=&quot;font-size: 14px&quot;&gt;分布式缓存服务&lt;br&gt;&lt;/span&gt;" style="text;html=1;resizable=0;autosize=1;align=center;verticalAlign=middle;points=[];fillColor=none;strokeColor=none;rounded=0;" vertex="1" parent="1">
          <mxGeometry x="358.95" y="3600" width="110" height="20" as="geometry" />
        </mxCell>
        <mxCell id="3huNSBhZNZtRJ6iiqQSG-216" value="" style="aspect=fixed;html=1;points=[];align=center;image;fontSize=12;image=img/lib/mscae/Cache_Redis_Product.svg;dashed=1;strokeColor=#000000;fillColor=#D0CEE2;" vertex="1" parent="1">
          <mxGeometry x="384.19" y="3645" width="59.52" height="50" as="geometry" />
        </mxCell>
        <mxCell id="3huNSBhZNZtRJ6iiqQSG-217" value="" style="aspect=fixed;html=1;points=[];align=center;image;fontSize=12;image=img/lib/mscae/Cache_Redis_Product.svg;dashed=1;strokeColor=#000000;fillColor=#D0CEE2;" vertex="1" parent="1">
          <mxGeometry x="503.45" y="3645" width="59.52" height="50" as="geometry" />
        </mxCell>
        <mxCell id="3huNSBhZNZtRJ6iiqQSG-218" value="" style="aspect=fixed;html=1;points=[];align=center;image;fontSize=12;image=img/lib/mscae/Cache_Redis_Product.svg;dashed=1;strokeColor=#000000;fillColor=#D0CEE2;" vertex="1" parent="1">
          <mxGeometry x="625.9300000000001" y="3645" width="59.52" height="50" as="geometry" />
        </mxCell>
        <mxCell id="3huNSBhZNZtRJ6iiqQSG-219" value="&lt;font style=&quot;font-size: 18px&quot;&gt;Jedis&lt;/font&gt;" style="rounded=1;whiteSpace=wrap;html=1;fontColor=#ffffff;fillColor=#73C91C;" vertex="1" parent="1">
          <mxGeometry x="465.95" y="3500" width="150" height="60" as="geometry" />
        </mxCell>
        <mxCell id="3huNSBhZNZtRJ6iiqQSG-220" value="" style="endArrow=classic;html=1;" edge="1" parent="1">
          <mxGeometry width="50" height="50" relative="1" as="geometry">
            <mxPoint x="538.45" y="3560" as="sourcePoint" />
            <mxPoint x="538.45" y="3590" as="targetPoint" />
          </mxGeometry>
        </mxCell>
        <mxCell id="3huNSBhZNZtRJ6iiqQSG-222" value="" style="verticalLabelPosition=bottom;html=1;verticalAlign=top;align=center;shape=mxgraph.azure.computer;pointerEvents=1;fillColor=#73C91C;strokeColor=none;" vertex="1" parent="1">
          <mxGeometry x="803.5" y="1400" width="60" height="60" as="geometry" />
        </mxCell>
        <mxCell id="3huNSBhZNZtRJ6iiqQSG-224" value="" style="endArrow=classic;html=1;" edge="1" parent="1">
          <mxGeometry width="50" height="50" relative="1" as="geometry">
            <mxPoint x="833" y="1460" as="sourcePoint" />
            <mxPoint x="833" y="1500" as="targetPoint" />
          </mxGeometry>
        </mxCell>
        <mxCell id="3huNSBhZNZtRJ6iiqQSG-225" value="" style="verticalLabelPosition=bottom;html=1;verticalAlign=top;align=center;shape=mxgraph.azure.computer;pointerEvents=1;fillColor=#73C91C;strokeColor=none;" vertex="1" parent="1">
          <mxGeometry x="508.95" y="3080" width="60" height="60" as="geometry" />
        </mxCell>
        <mxCell id="3huNSBhZNZtRJ6iiqQSG-226" value="" style="endArrow=classic;html=1;" edge="1" parent="1">
          <mxGeometry width="50" height="50" relative="1" as="geometry">
            <mxPoint x="538.45" y="3140" as="sourcePoint" />
            <mxPoint x="538.45" y="3180" as="targetPoint" />
          </mxGeometry>
        </mxCell>
        <mxCell id="3huNSBhZNZtRJ6iiqQSG-227" value="&lt;font style=&quot;font-size: 18px&quot;&gt;CDN&lt;/font&gt;" style="aspect=fixed;html=1;points=[];align=center;image;fontSize=12;image=img/lib/mscae/App_Services.svg;imageBackground=#ffffff;sketch=0;" vertex="1" parent="1">
          <mxGeometry x="950.45" y="3320" width="50" height="50" as="geometry" />
        </mxCell>
        <mxCell id="3huNSBhZNZtRJ6iiqQSG-228" value="&lt;font style=&quot;font-size: 18px&quot;&gt;点赞/评论&lt;/font&gt;" style="rounded=1;whiteSpace=wrap;html=1;fontColor=#ffffff;fillColor=#008a00;" vertex="1" parent="1">
          <mxGeometry x="80" y="4505" width="150" height="60" as="geometry" />
        </mxCell>
        <mxCell id="3huNSBhZNZtRJ6iiqQSG-229" value="&lt;font style=&quot;font-size: 18px&quot;&gt;单机&lt;/font&gt;" style="rounded=1;whiteSpace=wrap;html=1;fontColor=#ffffff;fillColor=#60a917;" vertex="1" parent="1">
          <mxGeometry x="370" y="4347" width="150" height="60" as="geometry" />
        </mxCell>
        <mxCell id="3huNSBhZNZtRJ6iiqQSG-230" value="&lt;font style=&quot;font-size: 18px&quot;&gt;集群&lt;/font&gt;" style="rounded=1;whiteSpace=wrap;html=1;fontColor=#ffffff;fillColor=#60a917;" vertex="1" parent="1">
          <mxGeometry x="372" y="4695" width="150" height="60" as="geometry" />
        </mxCell>
        <mxCell id="3huNSBhZNZtRJ6iiqQSG-231" value="" style="endArrow=none;html=1;" edge="1" parent="1">
          <mxGeometry width="50" height="50" relative="1" as="geometry">
            <mxPoint x="230" y="4538.5" as="sourcePoint" />
            <mxPoint x="300" y="4539" as="targetPoint" />
          </mxGeometry>
        </mxCell>
        <mxCell id="3huNSBhZNZtRJ6iiqQSG-232" value="" style="endArrow=none;html=1;" edge="1" parent="1">
          <mxGeometry width="50" height="50" relative="1" as="geometry">
            <mxPoint x="300" y="4725" as="sourcePoint" />
            <mxPoint x="300" y="4625" as="targetPoint" />
            <Array as="points">
              <mxPoint x="300" y="4375" />
            </Array>
          </mxGeometry>
        </mxCell>
        <mxCell id="3huNSBhZNZtRJ6iiqQSG-233" value="" style="endArrow=classic;html=1;entryX=0;entryY=0.5;entryDx=0;entryDy=0;" edge="1" parent="1">
          <mxGeometry width="50" height="50" relative="1" as="geometry">
            <mxPoint x="300" y="4380" as="sourcePoint" />
            <mxPoint x="370" y="4380.5" as="targetPoint" />
          </mxGeometry>
        </mxCell>
        <mxCell id="3huNSBhZNZtRJ6iiqQSG-234" value="" style="endArrow=classic;html=1;entryX=0;entryY=0.5;entryDx=0;entryDy=0;" edge="1" parent="1">
          <mxGeometry width="50" height="50" relative="1" as="geometry">
            <mxPoint x="300" y="4725" as="sourcePoint" />
            <mxPoint x="370" y="4725.5" as="targetPoint" />
          </mxGeometry>
        </mxCell>
        <mxCell id="3huNSBhZNZtRJ6iiqQSG-235" value="&lt;font style=&quot;font-size: 18px&quot;&gt;计算高性能&lt;/font&gt;" style="rounded=1;whiteSpace=wrap;html=1;fontColor=#ffffff;fillColor=#73C91C;" vertex="1" parent="1">
          <mxGeometry x="660" y="4260" width="150" height="60" as="geometry" />
        </mxCell>
        <mxCell id="3huNSBhZNZtRJ6iiqQSG-236" value="&lt;span style=&quot;font-size: 18px&quot;&gt;存储高性能&lt;/span&gt;" style="rounded=1;whiteSpace=wrap;html=1;fontColor=#ffffff;fillColor=#73C91C;" vertex="1" parent="1">
          <mxGeometry x="660" y="4435" width="150" height="60" as="geometry" />
        </mxCell>
        <mxCell id="3huNSBhZNZtRJ6iiqQSG-237" value="" style="endArrow=none;html=1;" edge="1" parent="1">
          <mxGeometry width="50" height="50" relative="1" as="geometry">
            <mxPoint x="520" y="4376.5" as="sourcePoint" />
            <mxPoint x="590" y="4377" as="targetPoint" />
          </mxGeometry>
        </mxCell>
        <mxCell id="3huNSBhZNZtRJ6iiqQSG-238" value="" style="endArrow=none;html=1;" edge="1" parent="1">
          <mxGeometry width="50" height="50" relative="1" as="geometry">
            <mxPoint x="590" y="4465" as="sourcePoint" />
            <mxPoint x="590" y="4375" as="targetPoint" />
            <Array as="points">
              <mxPoint x="590" y="4285" />
            </Array>
          </mxGeometry>
        </mxCell>
        <mxCell id="3huNSBhZNZtRJ6iiqQSG-239" value="" style="endArrow=classic;html=1;entryX=0;entryY=0.5;entryDx=0;entryDy=0;" edge="1" parent="1">
          <mxGeometry width="50" height="50" relative="1" as="geometry">
            <mxPoint x="590" y="4289.5" as="sourcePoint" />
            <mxPoint x="660" y="4290" as="targetPoint" />
          </mxGeometry>
        </mxCell>
        <mxCell id="3huNSBhZNZtRJ6iiqQSG-240" value="" style="endArrow=classic;html=1;entryX=0;entryY=0.5;entryDx=0;entryDy=0;" edge="1" parent="1">
          <mxGeometry width="50" height="50" relative="1" as="geometry">
            <mxPoint x="590" y="4465" as="sourcePoint" />
            <mxPoint x="660" y="4465.5" as="targetPoint" />
          </mxGeometry>
        </mxCell>
        <mxCell id="3huNSBhZNZtRJ6iiqQSG-241" value="&lt;font style=&quot;font-size: 18px&quot;&gt;计算高性能&lt;/font&gt;" style="rounded=1;whiteSpace=wrap;html=1;fontColor=#ffffff;fillColor=#73C91C;" vertex="1" parent="1">
          <mxGeometry x="662" y="4609" width="150" height="60" as="geometry" />
        </mxCell>
        <mxCell id="3huNSBhZNZtRJ6iiqQSG-242" value="&lt;span style=&quot;font-size: 18px&quot;&gt;存储高性能&lt;/span&gt;" style="rounded=1;whiteSpace=wrap;html=1;fontColor=#ffffff;fillColor=#73C91C;" vertex="1" parent="1">
          <mxGeometry x="662" y="4784" width="150" height="60" as="geometry" />
        </mxCell>
        <mxCell id="3huNSBhZNZtRJ6iiqQSG-243" value="" style="endArrow=none;html=1;" edge="1" parent="1">
          <mxGeometry width="50" height="50" relative="1" as="geometry">
            <mxPoint x="522" y="4725.5" as="sourcePoint" />
            <mxPoint x="592" y="4726" as="targetPoint" />
          </mxGeometry>
        </mxCell>
        <mxCell id="3huNSBhZNZtRJ6iiqQSG-244" value="" style="endArrow=none;html=1;" edge="1" parent="1">
          <mxGeometry width="50" height="50" relative="1" as="geometry">
            <mxPoint x="592" y="4814" as="sourcePoint" />
            <mxPoint x="592" y="4724" as="targetPoint" />
            <Array as="points">
              <mxPoint x="592" y="4634" />
            </Array>
          </mxGeometry>
        </mxCell>
        <mxCell id="3huNSBhZNZtRJ6iiqQSG-245" value="" style="endArrow=classic;html=1;entryX=0;entryY=0.5;entryDx=0;entryDy=0;" edge="1" parent="1">
          <mxGeometry width="50" height="50" relative="1" as="geometry">
            <mxPoint x="592" y="4638.5" as="sourcePoint" />
            <mxPoint x="662" y="4639" as="targetPoint" />
          </mxGeometry>
        </mxCell>
        <mxCell id="3huNSBhZNZtRJ6iiqQSG-246" value="" style="endArrow=classic;html=1;entryX=0;entryY=0.5;entryDx=0;entryDy=0;" edge="1" parent="1">
          <mxGeometry width="50" height="50" relative="1" as="geometry">
            <mxPoint x="592" y="4814" as="sourcePoint" />
            <mxPoint x="662" y="4814.5" as="targetPoint" />
          </mxGeometry>
        </mxCell>
        <mxCell id="3huNSBhZNZtRJ6iiqQSG-247" value="&lt;font style=&quot;font-size: 18px&quot;&gt;进程模型&lt;/font&gt;" style="rounded=1;whiteSpace=wrap;html=1;fillColor=#d0cee2;" vertex="1" parent="1">
          <mxGeometry x="952" y="4172.5" width="150" height="60" as="geometry" />
        </mxCell>
        <mxCell id="3huNSBhZNZtRJ6iiqQSG-248" value="&lt;span style=&quot;font-size: 18px&quot;&gt;缓存模型&lt;/span&gt;" style="rounded=1;whiteSpace=wrap;html=1;fontColor=#ffffff;fillColor=#85E820;" vertex="1" parent="1">
          <mxGeometry x="952" y="4347.5" width="150" height="60" as="geometry" />
        </mxCell>
        <mxCell id="3huNSBhZNZtRJ6iiqQSG-249" value="" style="endArrow=none;html=1;" edge="1" parent="1">
          <mxGeometry width="50" height="50" relative="1" as="geometry">
            <mxPoint x="812" y="4289" as="sourcePoint" />
            <mxPoint x="882" y="4289.5" as="targetPoint" />
          </mxGeometry>
        </mxCell>
        <mxCell id="3huNSBhZNZtRJ6iiqQSG-250" value="" style="endArrow=none;html=1;" edge="1" parent="1">
          <mxGeometry width="50" height="50" relative="1" as="geometry">
            <mxPoint x="882" y="4377.5" as="sourcePoint" />
            <mxPoint x="882" y="4287.5" as="targetPoint" />
            <Array as="points">
              <mxPoint x="882" y="4197.5" />
            </Array>
          </mxGeometry>
        </mxCell>
        <mxCell id="3huNSBhZNZtRJ6iiqQSG-251" value="" style="endArrow=classic;html=1;entryX=0;entryY=0.5;entryDx=0;entryDy=0;" edge="1" parent="1">
          <mxGeometry width="50" height="50" relative="1" as="geometry">
            <mxPoint x="882" y="4202" as="sourcePoint" />
            <mxPoint x="952" y="4202.5" as="targetPoint" />
          </mxGeometry>
        </mxCell>
        <mxCell id="3huNSBhZNZtRJ6iiqQSG-252" value="" style="endArrow=classic;html=1;entryX=0;entryY=0.5;entryDx=0;entryDy=0;" edge="1" parent="1">
          <mxGeometry width="50" height="50" relative="1" as="geometry">
            <mxPoint x="882" y="4377.5" as="sourcePoint" />
            <mxPoint x="952" y="4378" as="targetPoint" />
          </mxGeometry>
        </mxCell>
        <mxCell id="3huNSBhZNZtRJ6iiqQSG-253" value="&lt;span style=&quot;font-size: 18px&quot;&gt;网络模型&lt;/span&gt;" style="rounded=1;whiteSpace=wrap;html=1;fillColor=#d0cee2;" vertex="1" parent="1">
          <mxGeometry x="952" y="4260" width="150" height="60" as="geometry" />
        </mxCell>
        <mxCell id="3huNSBhZNZtRJ6iiqQSG-254" value="" style="endArrow=classic;html=1;entryX=0;entryY=0.5;entryDx=0;entryDy=0;" edge="1" parent="1">
          <mxGeometry width="50" height="50" relative="1" as="geometry">
            <mxPoint x="882" y="4289.5" as="sourcePoint" />
            <mxPoint x="952" y="4290" as="targetPoint" />
          </mxGeometry>
        </mxCell>
        <mxCell id="3huNSBhZNZtRJ6iiqQSG-255" value="&lt;font style=&quot;font-size: 18px&quot;&gt;存储模型&lt;/font&gt;" style="rounded=1;whiteSpace=wrap;html=1;fontColor=#ffffff;fillColor=#85E820;" vertex="1" parent="1">
          <mxGeometry x="952" y="4435" width="150" height="60" as="geometry" />
        </mxCell>
        <mxCell id="3huNSBhZNZtRJ6iiqQSG-256" value="" style="endArrow=classic;html=1;exitX=1;exitY=0.5;exitDx=0;exitDy=0;" edge="1" parent="1" source="3huNSBhZNZtRJ6iiqQSG-236">
          <mxGeometry width="50" height="50" relative="1" as="geometry">
            <mxPoint x="882" y="4464.5" as="sourcePoint" />
            <mxPoint x="952" y="4465" as="targetPoint" />
          </mxGeometry>
        </mxCell>
        <mxCell id="3huNSBhZNZtRJ6iiqQSG-257" value="&lt;font style=&quot;font-size: 18px&quot;&gt;任务分配&lt;/font&gt;" style="rounded=1;whiteSpace=wrap;html=1;fontColor=#ffffff;fillColor=#85E820;" vertex="1" parent="1">
          <mxGeometry x="954" y="4609" width="150" height="60" as="geometry" />
        </mxCell>
        <mxCell id="3huNSBhZNZtRJ6iiqQSG-258" value="" style="endArrow=classic;html=1;exitX=1;exitY=0.5;exitDx=0;exitDy=0;" edge="1" parent="1">
          <mxGeometry width="50" height="50" relative="1" as="geometry">
            <mxPoint x="812" y="4639" as="sourcePoint" />
            <mxPoint x="954" y="4639" as="targetPoint" />
          </mxGeometry>
        </mxCell>
        <mxCell id="3huNSBhZNZtRJ6iiqQSG-259" value="&lt;font style=&quot;font-size: 18px&quot;&gt;任务分解&lt;/font&gt;" style="rounded=1;whiteSpace=wrap;html=1;fontColor=#ffffff;fillColor=#85E820;" vertex="1" parent="1">
          <mxGeometry x="954" y="4784" width="150" height="60" as="geometry" />
        </mxCell>
        <mxCell id="3huNSBhZNZtRJ6iiqQSG-260" value="" style="endArrow=classic;html=1;exitX=1;exitY=0.5;exitDx=0;exitDy=0;" edge="1" parent="1">
          <mxGeometry width="50" height="50" relative="1" as="geometry">
            <mxPoint x="812" y="4814" as="sourcePoint" />
            <mxPoint x="954" y="4814" as="targetPoint" />
          </mxGeometry>
        </mxCell>
        <mxCell id="3huNSBhZNZtRJ6iiqQSG-261" value="&lt;font style=&quot;font-size: 14px&quot;&gt;先存入本地缓存，再存入redis集群&lt;/font&gt;" style="text;html=1;resizable=0;autosize=1;align=center;verticalAlign=middle;points=[];fillColor=none;strokeColor=none;rounded=0;" vertex="1" parent="1">
          <mxGeometry x="1122" y="4367.5" width="230" height="20" as="geometry" />
        </mxCell>
        <mxCell id="3huNSBhZNZtRJ6iiqQSG-262" value="&lt;span style=&quot;font-size: 14px&quot;&gt;采用关系型数据库、redis集群&lt;/span&gt;" style="text;html=1;resizable=0;autosize=1;align=center;verticalAlign=middle;points=[];fillColor=none;strokeColor=none;rounded=0;" vertex="1" parent="1">
          <mxGeometry x="1132.45" y="4455" width="200" height="20" as="geometry" />
        </mxCell>
        <mxCell id="3huNSBhZNZtRJ6iiqQSG-263" value="&lt;span style=&quot;font-size: 14px&quot;&gt;负载均衡即可，无需拆分任务&lt;/span&gt;" style="text;html=1;resizable=0;autosize=1;align=center;verticalAlign=middle;points=[];fillColor=none;strokeColor=none;rounded=0;" vertex="1" parent="1">
          <mxGeometry x="1130" y="4629" width="200" height="20" as="geometry" />
        </mxCell>
        <mxCell id="3huNSBhZNZtRJ6iiqQSG-264" value="&lt;span style=&quot;font-size: 14px&quot;&gt;无需考虑&lt;/span&gt;" style="text;html=1;resizable=0;autosize=1;align=center;verticalAlign=middle;points=[];fillColor=none;strokeColor=none;rounded=0;" vertex="1" parent="1">
          <mxGeometry x="1122" y="4190" width="70" height="20" as="geometry" />
        </mxCell>
        <mxCell id="3huNSBhZNZtRJ6iiqQSG-265" value="&lt;font style=&quot;font-size: 14px&quot;&gt;无需考虑&lt;/font&gt;" style="text;html=1;resizable=0;autosize=1;align=center;verticalAlign=middle;points=[];fillColor=none;strokeColor=none;rounded=0;" vertex="1" parent="1">
          <mxGeometry x="1122" y="4280" width="70" height="20" as="geometry" />
        </mxCell>
        <mxCell id="3huNSBhZNZtRJ6iiqQSG-266" value="&lt;font style=&quot;font-size: 24px&quot;&gt;高性能方案-点赞/评论&lt;/font&gt;" style="text;html=1;resizable=0;autosize=1;align=center;verticalAlign=middle;points=[];fillColor=none;strokeColor=none;rounded=0;" vertex="1" parent="1">
          <mxGeometry x="45" y="4120" width="250" height="20" as="geometry" />
        </mxCell>
        <mxCell id="3huNSBhZNZtRJ6iiqQSG-267" value="&lt;span style=&quot;font-size: 14px&quot;&gt;采用关系型数据库、redis集群&lt;/span&gt;" style="text;html=1;resizable=0;autosize=1;align=center;verticalAlign=middle;points=[];fillColor=none;strokeColor=none;rounded=0;" vertex="1" parent="1">
          <mxGeometry x="1132.45" y="4804" width="200" height="20" as="geometry" />
        </mxCell>
        <mxCell id="3huNSBhZNZtRJ6iiqQSG-269" value="" style="rounded=0;whiteSpace=wrap;html=1;dashed=1;fillColor=#B9E0A5;" vertex="1" parent="1">
          <mxGeometry x="671.97" y="5879" width="371" height="150" as="geometry" />
        </mxCell>
        <mxCell id="3huNSBhZNZtRJ6iiqQSG-270" value="" style="rounded=0;whiteSpace=wrap;html=1;dashed=1;fillColor=#B9E0A5;" vertex="1" parent="1">
          <mxGeometry x="676" y="5131" width="371" height="150" as="geometry" />
        </mxCell>
        <mxCell id="3huNSBhZNZtRJ6iiqQSG-271" value="&lt;font color=&quot;#ffffff&quot; style=&quot;font-size: 18px&quot;&gt;Nginx&lt;/font&gt;" style="rounded=0;whiteSpace=wrap;html=1;strokeColor=#000000;fillColor=#73C91C;" vertex="1" parent="1">
          <mxGeometry x="801.5" y="5031" width="120" height="60" as="geometry" />
        </mxCell>
        <mxCell id="3huNSBhZNZtRJ6iiqQSG-272" value="" style="aspect=fixed;pointerEvents=1;shadow=0;dashed=0;html=1;strokeColor=none;labelPosition=center;verticalLabelPosition=bottom;verticalAlign=top;align=center;shape=mxgraph.mscae.enterprise.server_generic;fillColor=#427310;" vertex="1" parent="1">
          <mxGeometry x="717.1" y="5181" width="28.8" height="60" as="geometry" />
        </mxCell>
        <mxCell id="3huNSBhZNZtRJ6iiqQSG-273" value="" style="aspect=fixed;pointerEvents=1;shadow=0;dashed=0;html=1;strokeColor=none;labelPosition=center;verticalLabelPosition=bottom;verticalAlign=top;align=center;shape=mxgraph.mscae.enterprise.server_generic;fillColor=#427310;" vertex="1" parent="1">
          <mxGeometry x="847.1" y="5181" width="28.8" height="60" as="geometry" />
        </mxCell>
        <mxCell id="3huNSBhZNZtRJ6iiqQSG-274" value="" style="aspect=fixed;pointerEvents=1;shadow=0;dashed=0;html=1;strokeColor=none;labelPosition=center;verticalLabelPosition=bottom;verticalAlign=top;align=center;shape=mxgraph.mscae.enterprise.server_generic;fillColor=#427310;" vertex="1" parent="1">
          <mxGeometry x="967.1" y="5181" width="28.8" height="60" as="geometry" />
        </mxCell>
        <mxCell id="3huNSBhZNZtRJ6iiqQSG-275" value="&lt;span style=&quot;font-size: 14px&quot;&gt;点赞/评论服务集群&lt;br&gt;（负载均衡）&lt;br&gt;&lt;/span&gt;" style="text;html=1;resizable=0;autosize=1;align=center;verticalAlign=middle;points=[];fillColor=none;strokeColor=none;rounded=0;" vertex="1" parent="1">
          <mxGeometry x="681.5" y="5131" width="130" height="40" as="geometry" />
        </mxCell>
        <mxCell id="3huNSBhZNZtRJ6iiqQSG-276" value="" style="endArrow=classic;html=1;" edge="1" parent="1">
          <mxGeometry width="50" height="50" relative="1" as="geometry">
            <mxPoint x="861.5" y="5091" as="sourcePoint" />
            <mxPoint x="861.5" y="5131" as="targetPoint" />
          </mxGeometry>
        </mxCell>
        <mxCell id="3huNSBhZNZtRJ6iiqQSG-277" value="&lt;span style=&quot;font-size: 14px&quot;&gt;数据库集群&lt;br&gt;（分库分表）&lt;br&gt;&lt;/span&gt;" style="text;html=1;resizable=0;autosize=1;align=center;verticalAlign=middle;points=[];fillColor=none;strokeColor=none;rounded=0;" vertex="1" parent="1">
          <mxGeometry x="663.07" y="5879" width="100" height="40" as="geometry" />
        </mxCell>
        <mxCell id="3huNSBhZNZtRJ6iiqQSG-278" value="&lt;font style=&quot;font-size: 18px&quot;&gt;Sharding-JDBC&lt;/font&gt;" style="rounded=1;whiteSpace=wrap;html=1;fontColor=#ffffff;fillColor=#73C91C;" vertex="1" parent="1">
          <mxGeometry x="788.07" y="5789" width="150" height="60" as="geometry" />
        </mxCell>
        <mxCell id="3huNSBhZNZtRJ6iiqQSG-279" value="" style="endArrow=classic;html=1;" edge="1" parent="1">
          <mxGeometry width="50" height="50" relative="1" as="geometry">
            <mxPoint x="862.57" y="5759" as="sourcePoint" />
            <mxPoint x="862.57" y="5789" as="targetPoint" />
          </mxGeometry>
        </mxCell>
        <mxCell id="3huNSBhZNZtRJ6iiqQSG-280" value="" style="endArrow=classic;html=1;" edge="1" parent="1">
          <mxGeometry width="50" height="50" relative="1" as="geometry">
            <mxPoint x="862.57" y="5849" as="sourcePoint" />
            <mxPoint x="862.57" y="5879" as="targetPoint" />
          </mxGeometry>
        </mxCell>
        <mxCell id="3huNSBhZNZtRJ6iiqQSG-281" value="" style="verticalLabelPosition=bottom;html=1;verticalAlign=top;align=center;strokeColor=none;shape=mxgraph.azure.database;fillColor=#427310;" vertex="1" parent="1">
          <mxGeometry x="696.07" y="5929" width="50" height="70" as="geometry" />
        </mxCell>
        <mxCell id="3huNSBhZNZtRJ6iiqQSG-282" value="" style="verticalLabelPosition=bottom;html=1;verticalAlign=top;align=center;strokeColor=none;shape=mxgraph.azure.database;fillColor=#427310;" vertex="1" parent="1">
          <mxGeometry x="832.47" y="5929" width="50" height="70" as="geometry" />
        </mxCell>
        <mxCell id="3huNSBhZNZtRJ6iiqQSG-283" value="" style="verticalLabelPosition=bottom;html=1;verticalAlign=top;align=center;strokeColor=none;shape=mxgraph.azure.database;fillColor=#427310;" vertex="1" parent="1">
          <mxGeometry x="963.07" y="5929" width="50" height="70" as="geometry" />
        </mxCell>
        <mxCell id="3huNSBhZNZtRJ6iiqQSG-289" value="" style="endArrow=none;html=1;entryX=0.5;entryY=0;entryDx=0;entryDy=0;" edge="1" parent="1" target="3huNSBhZNZtRJ6iiqQSG-297">
          <mxGeometry width="50" height="50" relative="1" as="geometry">
            <mxPoint x="863.0999999999999" y="5281" as="sourcePoint" />
            <mxPoint x="865.5" y="5351" as="targetPoint" />
          </mxGeometry>
        </mxCell>
        <mxCell id="3huNSBhZNZtRJ6iiqQSG-291" value="&lt;font style=&quot;font-size: 24px&quot;&gt;点赞/评论架构图&lt;/font&gt;" style="text;html=1;resizable=0;autosize=1;align=center;verticalAlign=middle;points=[];fillColor=none;strokeColor=none;rounded=0;" vertex="1" parent="1">
          <mxGeometry x="125" y="4931" width="190" height="20" as="geometry" />
        </mxCell>
        <mxCell id="3huNSBhZNZtRJ6iiqQSG-292" value="" style="rounded=0;whiteSpace=wrap;html=1;dashed=1;fillColor=#B9E0A5;" vertex="1" parent="1">
          <mxGeometry x="673.26" y="5410" width="371" height="150" as="geometry" />
        </mxCell>
        <mxCell id="3huNSBhZNZtRJ6iiqQSG-293" value="&lt;span style=&quot;font-size: 14px&quot;&gt;分布式缓存服务&lt;br&gt;&lt;/span&gt;" style="text;html=1;resizable=0;autosize=1;align=center;verticalAlign=middle;points=[];fillColor=none;strokeColor=none;rounded=0;" vertex="1" parent="1">
          <mxGeometry x="678.76" y="5420" width="110" height="20" as="geometry" />
        </mxCell>
        <mxCell id="3huNSBhZNZtRJ6iiqQSG-294" value="" style="aspect=fixed;html=1;points=[];align=center;image;fontSize=12;image=img/lib/mscae/Cache_Redis_Product.svg;dashed=1;strokeColor=#000000;fillColor=#D0CEE2;" vertex="1" parent="1">
          <mxGeometry x="704" y="5465" width="59.52" height="50" as="geometry" />
        </mxCell>
        <mxCell id="3huNSBhZNZtRJ6iiqQSG-295" value="" style="aspect=fixed;html=1;points=[];align=center;image;fontSize=12;image=img/lib/mscae/Cache_Redis_Product.svg;dashed=1;strokeColor=#000000;fillColor=#D0CEE2;" vertex="1" parent="1">
          <mxGeometry x="823.26" y="5465" width="59.52" height="50" as="geometry" />
        </mxCell>
        <mxCell id="3huNSBhZNZtRJ6iiqQSG-296" value="" style="aspect=fixed;html=1;points=[];align=center;image;fontSize=12;image=img/lib/mscae/Cache_Redis_Product.svg;dashed=1;strokeColor=#000000;fillColor=#D0CEE2;" vertex="1" parent="1">
          <mxGeometry x="945.74" y="5465" width="59.52" height="50" as="geometry" />
        </mxCell>
        <mxCell id="3huNSBhZNZtRJ6iiqQSG-297" value="&lt;font style=&quot;font-size: 18px&quot;&gt;Jedis&lt;/font&gt;" style="rounded=1;whiteSpace=wrap;html=1;fontColor=#ffffff;fillColor=#73C91C;" vertex="1" parent="1">
          <mxGeometry x="788" y="5320" width="150" height="60" as="geometry" />
        </mxCell>
        <mxCell id="3huNSBhZNZtRJ6iiqQSG-298" value="" style="endArrow=classic;html=1;" edge="1" parent="1">
          <mxGeometry width="50" height="50" relative="1" as="geometry">
            <mxPoint x="858.26" y="5380" as="sourcePoint" />
            <mxPoint x="858.26" y="5410" as="targetPoint" />
          </mxGeometry>
        </mxCell>
        <mxCell id="3huNSBhZNZtRJ6iiqQSG-299" value="" style="verticalLabelPosition=bottom;html=1;verticalAlign=top;align=center;shape=mxgraph.azure.computer;pointerEvents=1;fillColor=#73C91C;strokeColor=none;" vertex="1" parent="1">
          <mxGeometry x="831.5" y="4931" width="60" height="60" as="geometry" />
        </mxCell>
        <mxCell id="3huNSBhZNZtRJ6iiqQSG-300" value="" style="endArrow=classic;html=1;" edge="1" parent="1">
          <mxGeometry width="50" height="50" relative="1" as="geometry">
            <mxPoint x="861" y="4991" as="sourcePoint" />
            <mxPoint x="861" y="5031" as="targetPoint" />
          </mxGeometry>
        </mxCell>
        <mxCell id="3huNSBhZNZtRJ6iiqQSG-302" value="" style="endArrow=classic;html=1;entryX=0.5;entryY=0;entryDx=0;entryDy=0;" edge="1" parent="1" target="3huNSBhZNZtRJ6iiqQSG-303">
          <mxGeometry width="50" height="50" relative="1" as="geometry">
            <mxPoint x="861.26" y="5560" as="sourcePoint" />
            <mxPoint x="863.86" y="5590" as="targetPoint" />
          </mxGeometry>
        </mxCell>
        <mxCell id="3huNSBhZNZtRJ6iiqQSG-303" value="" style="rounded=0;whiteSpace=wrap;html=1;dashed=1;fillColor=#B9E0A5;" vertex="1" parent="1">
          <mxGeometry x="676" y="5609" width="371" height="150" as="geometry" />
        </mxCell>
        <mxCell id="3huNSBhZNZtRJ6iiqQSG-307" value="&lt;span style=&quot;font-size: 14px&quot;&gt;定时任务服务&lt;br&gt;&lt;/span&gt;" style="text;html=1;resizable=0;autosize=1;align=center;verticalAlign=middle;points=[];fillColor=none;strokeColor=none;rounded=0;" vertex="1" parent="1">
          <mxGeometry x="678.52" y="5619" width="100" height="20" as="geometry" />
        </mxCell>
        <mxCell id="3huNSBhZNZtRJ6iiqQSG-309" value="" style="pointerEvents=1;shadow=0;dashed=0;html=1;strokeColor=none;labelPosition=center;verticalLabelPosition=bottom;verticalAlign=top;align=center;shape=mxgraph.mscae.system_center.roles;sketch=0;fillColor=#427310;" vertex="1" parent="1">
          <mxGeometry x="845.16" y="5659" width="48" height="60" as="geometry" />
        </mxCell>
        <mxCell id="3huNSBhZNZtRJ6iiqQSG-310" value="" style="rounded=0;whiteSpace=wrap;html=1;dashed=1;fillColor=#B9E0A5;" vertex="1" parent="1">
          <mxGeometry x="1200" y="6630" width="371" height="150" as="geometry" />
        </mxCell>
        <mxCell id="3huNSBhZNZtRJ6iiqQSG-311" value="" style="rounded=0;whiteSpace=wrap;html=1;dashed=1;fillColor=#B9E0A5;" vertex="1" parent="1">
          <mxGeometry x="108.94999999999997" y="6631" width="371" height="150" as="geometry" />
        </mxCell>
        <mxCell id="3huNSBhZNZtRJ6iiqQSG-312" value="" style="rounded=0;whiteSpace=wrap;html=1;dashed=1;fillColor=#B9E0A5;" vertex="1" parent="1">
          <mxGeometry x="658.5" y="6320" width="371" height="150" as="geometry" />
        </mxCell>
        <mxCell id="3huNSBhZNZtRJ6iiqQSG-313" value="&lt;font color=&quot;#ffffff&quot; style=&quot;font-size: 18px&quot;&gt;Nginx&lt;/font&gt;" style="rounded=0;whiteSpace=wrap;html=1;strokeColor=#000000;fillColor=#73C91C;" vertex="1" parent="1">
          <mxGeometry x="784" y="6220" width="120" height="60" as="geometry" />
        </mxCell>
        <mxCell id="3huNSBhZNZtRJ6iiqQSG-314" value="" style="aspect=fixed;pointerEvents=1;shadow=0;dashed=0;html=1;strokeColor=none;labelPosition=center;verticalLabelPosition=bottom;verticalAlign=top;align=center;shape=mxgraph.mscae.enterprise.server_generic;fillColor=#427310;" vertex="1" parent="1">
          <mxGeometry x="699.6" y="6370" width="28.8" height="60" as="geometry" />
        </mxCell>
        <mxCell id="3huNSBhZNZtRJ6iiqQSG-315" value="" style="aspect=fixed;pointerEvents=1;shadow=0;dashed=0;html=1;strokeColor=none;labelPosition=center;verticalLabelPosition=bottom;verticalAlign=top;align=center;shape=mxgraph.mscae.enterprise.server_generic;fillColor=#427310;" vertex="1" parent="1">
          <mxGeometry x="829.6" y="6370" width="28.8" height="60" as="geometry" />
        </mxCell>
        <mxCell id="3huNSBhZNZtRJ6iiqQSG-316" value="" style="aspect=fixed;pointerEvents=1;shadow=0;dashed=0;html=1;strokeColor=none;labelPosition=center;verticalLabelPosition=bottom;verticalAlign=top;align=center;shape=mxgraph.mscae.enterprise.server_generic;fillColor=#427310;" vertex="1" parent="1">
          <mxGeometry x="949.6" y="6370" width="28.8" height="60" as="geometry" />
        </mxCell>
        <mxCell id="3huNSBhZNZtRJ6iiqQSG-317" value="&lt;span style=&quot;font-size: 14px&quot;&gt;朋友圈服务集群&lt;br&gt;（负载均衡）&lt;br&gt;&lt;/span&gt;" style="text;html=1;resizable=0;autosize=1;align=center;verticalAlign=middle;points=[];fillColor=none;strokeColor=none;rounded=0;" vertex="1" parent="1">
          <mxGeometry x="674" y="6320" width="110" height="40" as="geometry" />
        </mxCell>
        <mxCell id="3huNSBhZNZtRJ6iiqQSG-318" value="" style="endArrow=classic;html=1;" edge="1" parent="1">
          <mxGeometry width="50" height="50" relative="1" as="geometry">
            <mxPoint x="844" y="6280" as="sourcePoint" />
            <mxPoint x="844" y="6320" as="targetPoint" />
          </mxGeometry>
        </mxCell>
        <mxCell id="3huNSBhZNZtRJ6iiqQSG-319" value="&lt;span style=&quot;font-size: 14px&quot;&gt;数据库集群&lt;br&gt;（分库分表）&lt;br&gt;&lt;/span&gt;" style="text;html=1;resizable=0;autosize=1;align=center;verticalAlign=middle;points=[];fillColor=none;strokeColor=none;rounded=0;" vertex="1" parent="1">
          <mxGeometry x="100.05" y="6631" width="100" height="40" as="geometry" />
        </mxCell>
        <mxCell id="3huNSBhZNZtRJ6iiqQSG-320" value="&lt;font style=&quot;font-size: 18px&quot;&gt;Sharding-JDBC&lt;/font&gt;" style="rounded=1;whiteSpace=wrap;html=1;fontColor=#ffffff;fillColor=#73C91C;" vertex="1" parent="1">
          <mxGeometry x="225.05" y="6541" width="150" height="60" as="geometry" />
        </mxCell>
        <mxCell id="3huNSBhZNZtRJ6iiqQSG-321" value="" style="endArrow=classic;html=1;" edge="1" parent="1">
          <mxGeometry width="50" height="50" relative="1" as="geometry">
            <mxPoint x="299.55" y="6511" as="sourcePoint" />
            <mxPoint x="299.55" y="6541" as="targetPoint" />
          </mxGeometry>
        </mxCell>
        <mxCell id="3huNSBhZNZtRJ6iiqQSG-322" value="" style="endArrow=classic;html=1;" edge="1" parent="1">
          <mxGeometry width="50" height="50" relative="1" as="geometry">
            <mxPoint x="299.55" y="6601" as="sourcePoint" />
            <mxPoint x="299.55" y="6631" as="targetPoint" />
          </mxGeometry>
        </mxCell>
        <mxCell id="3huNSBhZNZtRJ6iiqQSG-323" value="" style="verticalLabelPosition=bottom;html=1;verticalAlign=top;align=center;strokeColor=none;shape=mxgraph.azure.database;fillColor=#427310;" vertex="1" parent="1">
          <mxGeometry x="133.05" y="6681" width="50" height="70" as="geometry" />
        </mxCell>
        <mxCell id="3huNSBhZNZtRJ6iiqQSG-324" value="" style="verticalLabelPosition=bottom;html=1;verticalAlign=top;align=center;strokeColor=none;shape=mxgraph.azure.database;fillColor=#427310;" vertex="1" parent="1">
          <mxGeometry x="269.45" y="6681" width="50" height="70" as="geometry" />
        </mxCell>
        <mxCell id="3huNSBhZNZtRJ6iiqQSG-325" value="" style="verticalLabelPosition=bottom;html=1;verticalAlign=top;align=center;strokeColor=none;shape=mxgraph.azure.database;fillColor=#427310;" vertex="1" parent="1">
          <mxGeometry x="400.05" y="6681" width="50" height="70" as="geometry" />
        </mxCell>
        <mxCell id="3huNSBhZNZtRJ6iiqQSG-326" value="&lt;span style=&quot;font-size: 14px&quot;&gt;分布式文件服务&lt;br&gt;&lt;/span&gt;" style="text;html=1;resizable=0;autosize=1;align=center;verticalAlign=middle;points=[];fillColor=none;strokeColor=none;rounded=0;" vertex="1" parent="1">
          <mxGeometry x="1200" y="6640" width="110" height="20" as="geometry" />
        </mxCell>
        <mxCell id="3huNSBhZNZtRJ6iiqQSG-327" value="" style="pointerEvents=1;shadow=0;dashed=0;html=1;strokeColor=none;labelPosition=center;verticalLabelPosition=bottom;verticalAlign=top;align=center;shape=mxgraph.mscae.system_center.distribution_point;fillColor=#427310;" vertex="1" parent="1">
          <mxGeometry x="1237" y="6685" width="50" height="60" as="geometry" />
        </mxCell>
        <mxCell id="3huNSBhZNZtRJ6iiqQSG-328" value="" style="pointerEvents=1;shadow=0;dashed=0;html=1;strokeColor=none;labelPosition=center;verticalLabelPosition=bottom;verticalAlign=top;align=center;shape=mxgraph.mscae.system_center.distribution_point;fillColor=#427310;" vertex="1" parent="1">
          <mxGeometry x="1365" y="6685" width="50" height="60" as="geometry" />
        </mxCell>
        <mxCell id="3huNSBhZNZtRJ6iiqQSG-329" value="" style="pointerEvents=1;shadow=0;dashed=0;html=1;strokeColor=none;labelPosition=center;verticalLabelPosition=bottom;verticalAlign=top;align=center;shape=mxgraph.mscae.system_center.distribution_point;fillColor=#427310;" vertex="1" parent="1">
          <mxGeometry x="1497" y="6685" width="50" height="60" as="geometry" />
        </mxCell>
        <mxCell id="3huNSBhZNZtRJ6iiqQSG-330" value="" style="endArrow=none;html=1;" edge="1" parent="1">
          <mxGeometry width="50" height="50" relative="1" as="geometry">
            <mxPoint x="300" y="6511" as="sourcePoint" />
            <mxPoint x="1350" y="6511" as="targetPoint" />
          </mxGeometry>
        </mxCell>
        <mxCell id="3huNSBhZNZtRJ6iiqQSG-331" value="" style="endArrow=none;html=1;entryX=0.5;entryY=0;entryDx=0;entryDy=0;" edge="1" parent="1" target="3huNSBhZNZtRJ6iiqQSG-339">
          <mxGeometry width="50" height="50" relative="1" as="geometry">
            <mxPoint x="845.5999999999999" y="6470" as="sourcePoint" />
            <mxPoint x="848" y="6540" as="targetPoint" />
          </mxGeometry>
        </mxCell>
        <mxCell id="3huNSBhZNZtRJ6iiqQSG-332" value="" style="endArrow=classic;html=1;entryX=0.5;entryY=0;entryDx=0;entryDy=0;" edge="1" parent="1">
          <mxGeometry width="50" height="50" relative="1" as="geometry">
            <mxPoint x="1392" y="6201" as="sourcePoint" />
            <mxPoint x="1392" y="6630" as="targetPoint" />
          </mxGeometry>
        </mxCell>
        <mxCell id="3huNSBhZNZtRJ6iiqQSG-333" value="&lt;font style=&quot;font-size: 24px&quot;&gt;朋友圈整体架构图&lt;/font&gt;" style="text;html=1;resizable=0;autosize=1;align=center;verticalAlign=middle;points=[];fillColor=none;strokeColor=none;rounded=0;" vertex="1" parent="1">
          <mxGeometry x="90" y="6110" width="210" height="20" as="geometry" />
        </mxCell>
        <mxCell id="3huNSBhZNZtRJ6iiqQSG-334" value="" style="rounded=0;whiteSpace=wrap;html=1;dashed=1;fillColor=#B9E0A5;" vertex="1" parent="1">
          <mxGeometry x="658.5" y="6630" width="371" height="150" as="geometry" />
        </mxCell>
        <mxCell id="3huNSBhZNZtRJ6iiqQSG-335" value="&lt;span style=&quot;font-size: 14px&quot;&gt;分布式缓存服务&lt;br&gt;&lt;/span&gt;" style="text;html=1;resizable=0;autosize=1;align=center;verticalAlign=middle;points=[];fillColor=none;strokeColor=none;rounded=0;" vertex="1" parent="1">
          <mxGeometry x="664" y="6640" width="110" height="20" as="geometry" />
        </mxCell>
        <mxCell id="3huNSBhZNZtRJ6iiqQSG-336" value="" style="aspect=fixed;html=1;points=[];align=center;image;fontSize=12;image=img/lib/mscae/Cache_Redis_Product.svg;dashed=1;strokeColor=#000000;fillColor=#D0CEE2;" vertex="1" parent="1">
          <mxGeometry x="689.24" y="6685" width="59.52" height="50" as="geometry" />
        </mxCell>
        <mxCell id="3huNSBhZNZtRJ6iiqQSG-337" value="" style="aspect=fixed;html=1;points=[];align=center;image;fontSize=12;image=img/lib/mscae/Cache_Redis_Product.svg;dashed=1;strokeColor=#000000;fillColor=#D0CEE2;" vertex="1" parent="1">
          <mxGeometry x="808.5" y="6685" width="59.52" height="50" as="geometry" />
        </mxCell>
        <mxCell id="3huNSBhZNZtRJ6iiqQSG-338" value="" style="aspect=fixed;html=1;points=[];align=center;image;fontSize=12;image=img/lib/mscae/Cache_Redis_Product.svg;dashed=1;strokeColor=#000000;fillColor=#D0CEE2;" vertex="1" parent="1">
          <mxGeometry x="930.98" y="6685" width="59.52" height="50" as="geometry" />
        </mxCell>
        <mxCell id="3huNSBhZNZtRJ6iiqQSG-339" value="&lt;font style=&quot;font-size: 18px&quot;&gt;Jedis&lt;/font&gt;" style="rounded=1;whiteSpace=wrap;html=1;fontColor=#ffffff;fillColor=#73C91C;" vertex="1" parent="1">
          <mxGeometry x="771" y="6540" width="150" height="60" as="geometry" />
        </mxCell>
        <mxCell id="3huNSBhZNZtRJ6iiqQSG-340" value="" style="endArrow=classic;html=1;" edge="1" parent="1">
          <mxGeometry width="50" height="50" relative="1" as="geometry">
            <mxPoint x="843.5" y="6600" as="sourcePoint" />
            <mxPoint x="843.5" y="6630" as="targetPoint" />
          </mxGeometry>
        </mxCell>
        <mxCell id="3huNSBhZNZtRJ6iiqQSG-341" value="" style="verticalLabelPosition=bottom;html=1;verticalAlign=top;align=center;shape=mxgraph.azure.computer;pointerEvents=1;fillColor=#73C91C;strokeColor=none;" vertex="1" parent="1">
          <mxGeometry x="814" y="6120" width="60" height="60" as="geometry" />
        </mxCell>
        <mxCell id="3huNSBhZNZtRJ6iiqQSG-342" value="" style="endArrow=classic;html=1;" edge="1" parent="1">
          <mxGeometry width="50" height="50" relative="1" as="geometry">
            <mxPoint x="843.5" y="6180" as="sourcePoint" />
            <mxPoint x="843.5" y="6220" as="targetPoint" />
          </mxGeometry>
        </mxCell>
        <mxCell id="3huNSBhZNZtRJ6iiqQSG-343" value="" style="endArrow=classic;html=1;" edge="1" parent="1">
          <mxGeometry width="50" height="50" relative="1" as="geometry">
            <mxPoint x="658" y="6680" as="sourcePoint" />
            <mxPoint x="481" y="6680" as="targetPoint" />
          </mxGeometry>
        </mxCell>
        <mxCell id="3huNSBhZNZtRJ6iiqQSG-345" value="定时任务同步&lt;span style=&quot;font-size: 11px ; background-color: rgb(255 , 255 , 255)&quot;&gt;点赞/评论数据&lt;/span&gt;" style="pointerEvents=1;shadow=0;dashed=0;html=1;strokeColor=none;labelPosition=center;verticalLabelPosition=bottom;verticalAlign=top;align=center;shape=mxgraph.mscae.system_center.roles;sketch=0;fillColor=#427310;" vertex="1" parent="1">
          <mxGeometry x="553.35" y="6601" width="31" height="40" as="geometry" />
        </mxCell>
        <mxCell id="3huNSBhZNZtRJ6iiqQSG-350" value="" style="endArrow=classic;html=1;" edge="1" parent="1">
          <mxGeometry width="50" height="50" relative="1" as="geometry">
            <mxPoint x="480" y="6760" as="sourcePoint" />
            <mxPoint x="661.05" y="6760" as="targetPoint" />
          </mxGeometry>
        </mxCell>
        <mxCell id="3huNSBhZNZtRJ6iiqQSG-351" value="&lt;font style=&quot;font-size: 12px&quot;&gt;缓存未命中数据&lt;/font&gt;" style="text;html=1;resizable=0;autosize=1;align=center;verticalAlign=middle;points=[];fillColor=none;strokeColor=none;rounded=0;" vertex="1" parent="1">
          <mxGeometry x="515.95" y="6735" width="100" height="20" as="geometry" />
        </mxCell>
        <mxCell id="3huNSBhZNZtRJ6iiqQSG-353" value="" style="endArrow=none;html=1;" edge="1" parent="1">
          <mxGeometry width="50" height="50" relative="1" as="geometry">
            <mxPoint x="844.8999999999999" y="6200" as="sourcePoint" />
            <mxPoint x="1392" y="6201" as="targetPoint" />
          </mxGeometry>
        </mxCell>
        <mxCell id="3huNSBhZNZtRJ6iiqQSG-354" value="&lt;font style=&quot;font-size: 18px&quot;&gt;CDN&lt;/font&gt;" style="aspect=fixed;html=1;points=[];align=center;image;fontSize=12;image=img/lib/mscae/App_Services.svg;imageBackground=#ffffff;sketch=0;" vertex="1" parent="1">
          <mxGeometry x="1365.0000000000002" y="6340" width="50" height="50" as="geometry" />
        </mxCell>
        <mxCell id="3huNSBhZNZtRJ6iiqQSG-355" value="" style="endArrow=classic;html=1;" edge="1" parent="1">
          <mxGeometry width="50" height="50" relative="1" as="geometry">
            <mxPoint x="1350" y="6511" as="sourcePoint" />
            <mxPoint x="1350" y="6630" as="targetPoint" />
          </mxGeometry>
        </mxCell>
      </root>
    </mxGraphModel>
  </diagram>
</mxfile>
